solid Default
  facet normal 0.000000e+00 -1.000000e+00 0.000000e+00
    outer loop
      vertex 5.250500e+00 -1.250050e+01 1.200100e+01
      vertex 5.250500e+00 -1.250050e+01 0.000000e+00
      vertex 6.747500e+00 -1.250050e+01 1.498000e+00
    endloop
  endfacet
  facet normal 0.000000e+00 -1.000000e+00 0.000000e+00
    outer loop
      vertex 5.250500e+00 -1.250050e+01 1.200100e+01
      vertex 6.747500e+00 -1.250050e+01 1.498000e+00
      vertex 6.747500e+00 -1.250050e+01 1.200100e+01
    endloop
  endfacet
  facet normal 0.000000e+00 -1.000000e+00 0.000000e+00
    outer loop
      vertex 1.825350e+01 -1.250050e+01 1.200100e+01
      vertex 1.825350e+01 -1.250050e+01 1.498000e+00
      vertex 1.975050e+01 -1.250050e+01 1.200100e+01
    endloop
  endfacet
  facet normal 0.000000e+00 -1.000000e+00 0.000000e+00
    outer loop
      vertex 5.250500e+00 -1.250050e+01 0.000000e+00
      vertex 1.975050e+01 -1.250050e+01 0.000000e+00
      vertex 6.747500e+00 -1.250050e+01 1.498000e+00
    endloop
  endfacet
  facet normal 0.000000e+00 -1.000000e+00 0.000000e+00
    outer loop
      vertex 1.825350e+01 -1.250050e+01 1.498000e+00
      vertex 6.747500e+00 -1.250050e+01 1.498000e+00
      vertex 1.975050e+01 -1.250050e+01 0.000000e+00
    endloop
  endfacet
  facet normal 0.000000e+00 -1.000000e+00 0.000000e+00
    outer loop
      vertex 1.975050e+01 -1.250050e+01 1.200100e+01
      vertex 1.825350e+01 -1.250050e+01 1.498000e+00
      vertex 1.975050e+01 -1.250050e+01 0.000000e+00
    endloop
  endfacet
  facet normal 0.000000e+00 -1.000000e+00 0.000000e+00
    outer loop
      vertex -1.975050e+01 3.499500e+00 1.000000e-03
      vertex 5.250500e+00 3.499500e+00 1.000000e-03
      vertex -1.357450e+01 3.499500e+00 3.462000e+00
    endloop
  endfacet
  facet normal 0.000000e+00 0.000000e+00 1.000000e+00
    outer loop
      vertex 5.250500e+00 3.499500e+00 1.200100e+01
      vertex 5.250500e+00 -1.250050e+01 1.200100e+01
      vertex 6.747500e+00 -1.250050e+01 1.200100e+01
    endloop
  endfacet
  facet normal 0.000000e+00 -1.000000e+00 0.000000e+00
    outer loop
      vertex -1.142350e+01 3.499500e+00 6.973000e+00
      vertex -1.124650e+01 3.499500e+00 6.001000e+00
      vertex 5.250500e+00 3.499500e+00 1.200100e+01
    endloop
  endfacet
  facet normal -1.000000e+00 0.000000e+00 0.000000e+00
    outer loop
      vertex 5.250500e+00 3.499500e+00 1.200100e+01
      vertex 5.250500e+00 3.499500e+00 1.000000e-03
      vertex 5.250500e+00 -1.250050e+01 1.200100e+01
    endloop
  endfacet
  facet normal 0.000000e+00 -1.000000e+00 0.000000e+00
    outer loop
      vertex -1.268350e+01 3.499500e+00 3.655000e+00
      vertex -1.357450e+01 3.499500e+00 3.462000e+00
      vertex 5.250500e+00 3.499500e+00 1.000000e-03
    endloop
  endfacet
  facet normal 0.000000e+00 -1.000000e+00 0.000000e+00
    outer loop
      vertex 5.250500e+00 3.499500e+00 1.200100e+01
      vertex -1.124650e+01 3.499500e+00 6.001000e+00
      vertex 5.250500e+00 3.499500e+00 1.000000e-03
    endloop
  endfacet
  facet normal 0.000000e+00 0.000000e+00 1.000000e+00
    outer loop
      vertex 5.250500e+00 3.499500e+00 1.200100e+01
      vertex 5.251500e+00 7.356500e+00 1.200100e+01
      vertex -1.233909e+01 3.499500e+00 1.200100e+01
    endloop
  endfacet
  facet normal 0.000000e+00 0.000000e+00 1.000000e+00
    outer loop
      vertex 5.251500e+00 1.250050e+01 1.200100e+01
      vertex 5.251500e+00 1.250050e+01 1.200100e+01
      vertex 6.747500e+00 1.100250e+01 1.200100e+01
    endloop
  endfacet
  facet normal 0.000000e+00 0.000000e+00 1.000000e+00
    outer loop
      vertex 5.251500e+00 1.250050e+01 1.200100e+01
      vertex 6.747500e+00 1.100250e+01 1.200100e+01
      vertex 1.825350e+01 1.100250e+01 1.200100e+01
    endloop
  endfacet
  facet normal 0.000000e+00 0.000000e+00 1.000000e+00
    outer loop
      vertex 5.251500e+00 1.250050e+01 1.200100e+01
      vertex 1.825350e+01 1.100250e+01 1.200100e+01
      vertex 1.975050e+01 1.250050e+01 1.200100e+01
    endloop
  endfacet
  facet normal -1.000000e+00 0.000000e+00 0.000000e+00
    outer loop
      vertex 5.250500e+00 -1.250050e+01 0.000000e+00
      vertex 5.250500e+00 -1.250050e+01 1.200100e+01
      vertex 5.250500e+00 3.499500e+00 1.000000e-03
    endloop
  endfacet
  facet normal 0.000000e+00 0.000000e+00 1.000000e+00
    outer loop
      vertex 6.747500e+00 -1.250050e+01 1.200100e+01
      vertex 6.747500e+00 1.100250e+01 1.200100e+01
      vertex 5.250500e+00 3.499500e+00 1.200100e+01
    endloop
  endfacet
  facet normal -1.000000e+00 0.000000e+00 0.000000e+00
    outer loop
      vertex 1.825350e+01 -1.250050e+01 1.200100e+01
      vertex 1.825350e+01 1.100250e+01 1.498000e+00
      vertex 1.825350e+01 -1.250050e+01 1.498000e+00
    endloop
  endfacet
  facet normal 0.000000e+00 0.000000e+00 1.000000e+00
    outer loop
      vertex 1.825350e+01 -1.250050e+01 1.498000e+00
      vertex 1.825350e+01 1.100250e+01 1.498000e+00
      vertex 6.747500e+00 -1.250050e+01 1.498000e+00
    endloop
  endfacet
  facet normal 0.000000e+00 0.000000e+00 1.000000e+00
    outer loop
      vertex 5.251500e+00 7.356500e+00 1.200100e+01
      vertex -1.874950e+01 7.356500e+00 1.200100e+01
      vertex -1.233909e+01 3.499500e+00 1.200100e+01
    endloop
  endfacet
  facet normal 0.000000e+00 0.000000e+00 1.000000e+00
    outer loop
      vertex -1.975050e+01 3.499500e+00 1.200100e+01
      vertex -1.233909e+01 3.499500e+00 1.200100e+01
      vertex -1.874950e+01 7.356500e+00 1.200100e+01
    endloop
  endfacet
  facet normal 0.000000e+00 0.000000e+00 1.000000e+00
    outer loop
      vertex -1.975050e+01 7.357500e+00 1.200100e+01
      vertex -1.975050e+01 3.499500e+00 1.200100e+01
      vertex -1.874950e+01 7.356500e+00 1.200100e+01
    endloop
  endfacet
  facet normal 0.000000e+00 0.000000e+00 1.000000e+00
    outer loop
      vertex -1.975050e+01 7.357500e+00 1.200100e+01
      vertex -1.874950e+01 7.356500e+00 1.200100e+01
      vertex -1.874950e+01 7.356500e+00 1.200100e+01
    endloop
  endfacet
  facet normal 0.000000e+00 0.000000e+00 1.000000e+00
    outer loop
      vertex -1.975050e+01 7.357500e+00 1.200100e+01
      vertex -1.874950e+01 7.356500e+00 1.200100e+01
      vertex -1.874750e+01 7.356929e+00 1.200100e+01
    endloop
  endfacet
  facet normal 0.000000e+00 0.000000e+00 1.000000e+00
    outer loop
      vertex -1.975050e+01 7.357500e+00 1.200100e+01
      vertex -1.874750e+01 7.356929e+00 1.200100e+01
      vertex -1.874483e+01 7.357500e+00 1.200100e+01
    endloop
  endfacet
  facet normal 0.000000e+00 -1.000000e+00 0.000000e+00
    outer loop
      vertex 6.747500e+00 1.100250e+01 1.200100e+01
      vertex 6.747500e+00 1.100250e+01 1.498000e+00
      vertex 1.825350e+01 1.100250e+01 1.498000e+00
    endloop
  endfacet
  facet normal 0.000000e+00 -1.000000e+00 0.000000e+00
    outer loop
      vertex 6.747500e+00 1.100250e+01 1.200100e+01
      vertex 1.825350e+01 1.100250e+01 1.498000e+00
      vertex 1.825350e+01 1.100250e+01 1.200100e+01
    endloop
  endfacet
  facet normal 0.000000e+00 -1.000000e+00 0.000000e+00
    outer loop
      vertex -1.975050e+01 3.499500e+00 1.200100e+01
      vertex -1.975050e+01 3.499500e+00 1.000000e-03
      vertex -1.590250e+01 3.499500e+00 6.001000e+00
    endloop
  endfacet
  facet normal 0.000000e+00 -1.000000e+00 0.000000e+00
    outer loop
      vertex -1.357450e+01 3.499500e+00 3.462000e+00
      vertex -1.446550e+01 3.499500e+00 3.655000e+00
      vertex -1.975050e+01 3.499500e+00 1.000000e-03
    endloop
  endfacet
  facet normal -1.000000e+00 0.000000e+00 0.000000e+00
    outer loop
      vertex -1.975050e+01 3.499500e+00 1.200100e+01
      vertex -1.975050e+01 7.357500e+00 1.200100e+01
      vertex -1.975050e+01 3.499500e+00 1.000000e-03
    endloop
  endfacet
  facet normal -1.000000e+00 0.000000e+00 0.000000e+00
    outer loop
      vertex -1.975050e+01 7.357500e+00 1.000000e-03
      vertex -1.975050e+01 3.499500e+00 1.000000e-03
      vertex -1.975050e+01 7.357500e+00 1.200100e+01
    endloop
  endfacet
  facet normal 0.000000e+00 -1.000000e+00 0.000000e+00
    outer loop
      vertex -1.522050e+01 3.499500e+00 4.205000e+00
      vertex -1.975050e+01 3.499500e+00 1.000000e-03
      vertex -1.446550e+01 3.499500e+00 3.655000e+00
    endloop
  endfacet
  facet normal -1.000000e+00 0.000000e+00 0.000000e+00
    outer loop
      vertex 5.250500e+00 3.499500e+00 1.000000e-03
      vertex 5.250500e+00 7.357500e+00 1.000000e-03
      vertex 5.250500e+00 -1.250050e+01 0.000000e+00
    endloop
  endfacet
  facet normal -1.000000e+00 0.000000e+00 0.000000e+00
    outer loop
      vertex 5.250500e+00 1.250029e+01 1.000000e-03
      vertex 5.250500e+00 1.250029e+01 1.000000e-03
      vertex 5.250500e+00 1.250050e+01 0.000000e+00
    endloop
  endfacet
  facet normal 0.000000e+00 -1.000000e+00 0.000000e+00
    outer loop
      vertex -1.572550e+01 3.499500e+00 5.029000e+00
      vertex -1.975050e+01 3.499500e+00 1.000000e-03
      vertex -1.522050e+01 3.499500e+00 4.205000e+00
    endloop
  endfacet
  facet normal 0.000000e+00 0.000000e+00 -1.000000e+00
    outer loop
      vertex -1.975050e+01 3.499500e+00 1.000000e-03
      vertex -1.874384e+01 7.357500e+00 1.000000e-03
      vertex 5.250500e+00 3.499500e+00 1.000000e-03
    endloop
  endfacet
  facet normal 0.000000e+00 0.000000e+00 -1.000000e+00
    outer loop
      vertex 5.250500e+00 7.357500e+00 1.000000e-03
      vertex 5.250500e+00 3.499500e+00 1.000000e-03
      vertex -1.874384e+01 7.357500e+00 1.000000e-03
    endloop
  endfacet
  facet normal 0.000000e+00 -1.000000e+00 0.000000e+00
    outer loop
      vertex -1.590250e+01 3.499500e+00 6.001000e+00
      vertex -1.975050e+01 3.499500e+00 1.000000e-03
      vertex -1.572550e+01 3.499500e+00 5.029000e+00
    endloop
  endfacet
  facet normal 0.000000e+00 0.000000e+00 -1.000000e+00
    outer loop
      vertex -1.874483e+01 7.357500e+00 1.000000e-03
      vertex -1.874384e+01 7.357500e+00 1.000000e-03
      vertex -1.975050e+01 3.499500e+00 1.000000e-03
    endloop
  endfacet
  facet normal 0.000000e+00 0.000000e+00 -1.000000e+00
    outer loop
      vertex -1.975050e+01 7.357500e+00 1.000000e-03
      vertex -1.874483e+01 7.357500e+00 1.000000e-03
      vertex -1.975050e+01 3.499500e+00 1.000000e-03
    endloop
  endfacet
  facet normal 0.000000e+00 0.000000e+00 -1.000000e+00
    outer loop
      vertex -1.874384e+01 7.357500e+00 1.000000e-03
      vertex -1.874483e+01 7.357500e+00 1.000000e-03
      vertex -1.874483e+01 7.357500e+00 1.000000e-03
    endloop
  endfacet
  facet normal 0.000000e+00 0.000000e+00 -1.000000e+00
    outer loop
      vertex -1.874384e+01 7.357500e+00 1.000000e-03
      vertex -1.874483e+01 7.357500e+00 1.000000e-03
      vertex -1.874384e+01 7.357500e+00 1.000000e-03
    endloop
  endfacet
  facet normal 0.000000e+00 0.000000e+00 -1.000000e+00
    outer loop
      vertex -1.874483e+01 7.357500e+00 1.000000e-03
      vertex 5.250500e+00 1.250029e+01 1.000000e-03
      vertex 5.250500e+00 1.250029e+01 1.000000e-03
    endloop
  endfacet
  facet normal 0.000000e+00 0.000000e+00 -1.000000e+00
    outer loop
      vertex -1.874483e+01 7.357500e+00 1.000000e-03
      vertex 5.250500e+00 1.250029e+01 1.000000e-03
      vertex -1.874483e+01 7.357500e+00 1.000000e-03
    endloop
  endfacet
  facet normal 0.000000e+00 0.000000e+00 -1.000000e+00
    outer loop
      vertex -1.874483e+01 7.357500e+00 1.000000e-03
      vertex 5.250500e+00 1.250029e+01 1.000000e-03
      vertex -1.874384e+01 7.357500e+00 1.000000e-03
    endloop
  endfacet
  facet normal 2.117010e-01 0.000000e+00 9.773345e-01
    outer loop
      vertex -1.357450e+01 3.499500e+00 3.462000e+00
      vertex -1.357450e+01 6.608500e+00 3.462000e+00
      vertex -1.446550e+01 6.608500e+00 3.655000e+00
    endloop
  endfacet
  facet normal 2.117010e-01 0.000000e+00 9.773345e-01
    outer loop
      vertex -1.357450e+01 3.499500e+00 3.462000e+00
      vertex -1.446550e+01 6.608500e+00 3.655000e+00
      vertex -1.446550e+01 3.499500e+00 3.655000e+00
    endloop
  endfacet
  facet normal 0.000000e+00 1.000000e+00 0.000000e+00
    outer loop
      vertex -1.874483e+01 7.357500e+00 1.000000e-03
      vertex -1.975050e+01 7.357500e+00 1.000000e-03
      vertex -1.874483e+01 7.357500e+00 3.332815e-03
    endloop
  endfacet
  facet normal 0.000000e+00 1.000000e+00 0.000000e+00
    outer loop
      vertex -1.975050e+01 7.357500e+00 1.000000e-03
      vertex -1.975050e+01 7.357500e+00 1.200100e+01
      vertex -1.874483e+01 7.357500e+00 3.332815e-03
    endloop
  endfacet
  facet normal 0.000000e+00 1.000000e+00 0.000000e+00
    outer loop
      vertex -1.874483e+01 7.357500e+00 1.199967e+01
      vertex -1.874483e+01 7.357500e+00 3.332815e-03
      vertex -1.975050e+01 7.357500e+00 1.200100e+01
    endloop
  endfacet
  facet normal 0.000000e+00 1.000000e+00 0.000000e+00
    outer loop
      vertex -1.874483e+01 7.357500e+00 1.199967e+01
      vertex -1.975050e+01 7.357500e+00 1.200100e+01
      vertex -1.874483e+01 7.357500e+00 1.200100e+01
    endloop
  endfacet
  facet normal 0.000000e+00 1.000000e+00 0.000000e+00
    outer loop
      vertex 5.251500e+00 1.250050e+01 1.200100e+01
      vertex 5.250500e+00 1.250050e+01 0.000000e+00
      vertex 5.250500e+00 1.250050e+01 1.200100e+01
    endloop
  endfacet
  facet normal 0.000000e+00 -1.000000e+00 0.000000e+00
    outer loop
      vertex -1.522050e+01 3.499500e+00 7.797000e+00
      vertex -1.975050e+01 3.499500e+00 1.200100e+01
      vertex -1.572550e+01 3.499500e+00 6.973000e+00
    endloop
  endfacet
  facet normal 0.000000e+00 -1.000000e+00 0.000000e+00
    outer loop
      vertex -1.590250e+01 3.499500e+00 6.001000e+00
      vertex -1.572550e+01 3.499500e+00 6.973000e+00
      vertex -1.975050e+01 3.499500e+00 1.200100e+01
    endloop
  endfacet
  facet normal 0.000000e+00 0.000000e+00 1.000000e+00
    outer loop
      vertex 5.250500e+00 1.250050e+01 1.200100e+01
      vertex 5.250500e+00 1.250029e+01 1.200100e+01
      vertex 5.251500e+00 1.250050e+01 1.200100e+01
    endloop
  endfacet
  facet normal 5.888081e-01 0.000000e+00 8.082729e-01
    outer loop
      vertex -1.446550e+01 3.499500e+00 3.655000e+00
      vertex -1.446550e+01 6.608500e+00 3.655000e+00
      vertex -1.522050e+01 6.608500e+00 4.205000e+00
    endloop
  endfacet
  facet normal 5.888081e-01 0.000000e+00 8.082729e-01
    outer loop
      vertex -1.446550e+01 3.499500e+00 3.655000e+00
      vertex -1.522050e+01 6.608500e+00 4.205000e+00
      vertex -1.522050e+01 3.499500e+00 4.205000e+00
    endloop
  endfacet
  facet normal 1.000000e+00 0.000000e+00 0.000000e+00
    outer loop
      vertex 1.975050e+01 -1.250050e+01 1.200100e+01
      vertex 1.975050e+01 -1.250050e+01 0.000000e+00
      vertex 1.975050e+01 1.250050e+01 1.200100e+01
    endloop
  endfacet
  facet normal -1.000000e+00 0.000000e+00 0.000000e+00
    outer loop
      vertex 5.250500e+00 1.250029e+01 1.000000e-03
      vertex 5.250500e+00 1.250029e+01 1.500000e-03
      vertex 5.250500e+00 1.250050e+01 0.000000e+00
    endloop
  endfacet
  facet normal -1.000000e+00 0.000000e+00 0.000000e+00
    outer loop
      vertex 5.250500e+00 1.250050e+01 1.200100e+01
      vertex 5.250500e+00 1.250050e+01 0.000000e+00
      vertex 5.250500e+00 1.250029e+01 1.500000e-03
    endloop
  endfacet
  facet normal -1.000000e+00 0.000000e+00 0.000000e+00
    outer loop
      vertex 5.250500e+00 1.250050e+01 1.200100e+01
      vertex 5.250500e+00 1.250029e+01 1.500000e-03
      vertex 5.250500e+00 1.250029e+01 1.200100e+01
    endloop
  endfacet
  facet normal 1.000000e+00 0.000000e+00 0.000000e+00
    outer loop
      vertex 1.975050e+01 1.250050e+01 0.000000e+00
      vertex 1.975050e+01 1.250050e+01 1.200100e+01
      vertex 1.975050e+01 -1.250050e+01 0.000000e+00
    endloop
  endfacet
  facet normal 0.000000e+00 -1.000000e+00 0.000000e+00
    outer loop
      vertex -1.357450e+01 3.499500e+00 8.540000e+00
      vertex -1.233909e+01 3.499500e+00 1.200100e+01
      vertex -1.446550e+01 3.499500e+00 8.347000e+00
    endloop
  endfacet
  facet normal 0.000000e+00 -1.000000e+00 0.000000e+00
    outer loop
      vertex -1.522050e+01 3.499500e+00 7.797000e+00
      vertex -1.446550e+01 3.499500e+00 8.347000e+00
      vertex -1.975050e+01 3.499500e+00 1.200100e+01
    endloop
  endfacet
  facet normal 8.526161e-01 0.000000e+00 5.225378e-01
    outer loop
      vertex -1.572550e+01 6.608500e+00 5.029000e+00
      vertex -1.572550e+01 3.499500e+00 5.029000e+00
      vertex -1.522050e+01 3.499500e+00 4.205000e+00
    endloop
  endfacet
  facet normal 8.526161e-01 0.000000e+00 5.225378e-01
    outer loop
      vertex -1.572550e+01 6.608500e+00 5.029000e+00
      vertex -1.522050e+01 3.499500e+00 4.205000e+00
      vertex -1.522050e+01 6.608500e+00 4.205000e+00
    endloop
  endfacet
  facet normal -2.095653e-01 9.777946e-01 1.746377e-05
    outer loop
      vertex -6.748500e+00 9.928501e+00 6.001000e+00
      vertex 5.250500e+00 1.250029e+01 1.500000e-03
      vertex 5.250500e+00 1.250029e+01 1.000000e-03
    endloop
  endfacet
  facet normal -2.095653e-01 9.777946e-01 1.746377e-05
    outer loop
      vertex -6.748500e+00 9.928501e+00 6.001000e+00
      vertex 5.250500e+00 1.250029e+01 1.000000e-03
      vertex -1.874483e+01 7.357500e+00 1.000000e-03
    endloop
  endfacet
  facet normal -2.095653e-01 9.777946e-01 1.746377e-05
    outer loop
      vertex -6.748500e+00 9.928501e+00 6.001000e+00
      vertex -1.874483e+01 7.357500e+00 1.000000e-03
      vertex -1.874483e+01 7.357500e+00 3.332815e-03
    endloop
  endfacet
  facet normal 0.000000e+00 0.000000e+00 1.000000e+00
    outer loop
      vertex 5.251500e+00 7.356500e+00 1.200100e+01
      vertex 5.250500e+00 3.499500e+00 1.200100e+01
      vertex 6.747500e+00 1.100250e+01 1.200100e+01
    endloop
  endfacet
  facet normal 0.000000e+00 0.000000e+00 1.000000e+00
    outer loop
      vertex 5.251500e+00 1.250050e+01 1.200100e+01
      vertex 5.251500e+00 7.356500e+00 1.200100e+01
      vertex 6.747500e+00 1.100250e+01 1.200100e+01
    endloop
  endfacet
  facet normal -2.095569e-01 9.777964e-01 0.000000e+00
    outer loop
      vertex -6.748500e+00 9.928501e+00 6.001000e+00
      vertex -1.874483e+01 7.357500e+00 3.332815e-03
      vertex -1.874483e+01 7.357500e+00 1.199967e+01
    endloop
  endfacet
  facet normal 0.000000e+00 -1.000000e+00 0.000000e+00
    outer loop
      vertex -1.268350e+01 3.499500e+00 8.347000e+00
      vertex -1.233909e+01 3.499500e+00 1.200100e+01
      vertex -1.357450e+01 3.499500e+00 8.540000e+00
    endloop
  endfacet
  facet normal 9.838213e-01 0.000000e+00 1.791526e-01
    outer loop
      vertex -1.572550e+01 3.499500e+00 5.029000e+00
      vertex -1.572550e+01 6.608500e+00 5.029000e+00
      vertex -1.590250e+01 6.608500e+00 6.001000e+00
    endloop
  endfacet
  facet normal 9.838213e-01 0.000000e+00 1.791526e-01
    outer loop
      vertex -1.572550e+01 3.499500e+00 5.029000e+00
      vertex -1.590250e+01 6.608500e+00 6.001000e+00
      vertex -1.590250e+01 3.499500e+00 6.001000e+00
    endloop
  endfacet
  facet normal -2.095736e-01 9.777929e-01 0.000000e+00
    outer loop
      vertex 5.251500e+00 1.250050e+01 1.200200e+01
      vertex 5.251500e+00 1.250050e+01 1.200100e+01
      vertex 5.250500e+00 1.250029e+01 1.200100e+01
    endloop
  endfacet
  facet normal -2.095736e-01 9.777929e-01 0.000000e+00
    outer loop
      vertex 5.251500e+00 1.250050e+01 1.200200e+01
      vertex 5.250500e+00 1.250029e+01 1.200100e+01
      vertex -6.748500e+00 9.928501e+00 6.001000e+00
    endloop
  endfacet
  facet normal 9.838213e-01 0.000000e+00 -1.791526e-01
    outer loop
      vertex -1.572550e+01 6.608500e+00 6.973000e+00
      vertex -1.572550e+01 3.499500e+00 6.973000e+00
      vertex -1.590250e+01 3.499500e+00 6.001000e+00
    endloop
  endfacet
  facet normal 9.838213e-01 0.000000e+00 -1.791526e-01
    outer loop
      vertex -1.572550e+01 6.608500e+00 6.973000e+00
      vertex -1.590250e+01 3.499500e+00 6.001000e+00
      vertex -1.590250e+01 6.608500e+00 6.001000e+00
    endloop
  endfacet
  facet normal 0.000000e+00 -1.000000e+00 0.000000e+00
    outer loop
      vertex 5.250500e+00 3.499500e+00 1.200100e+01
      vertex -1.233909e+01 3.499500e+00 1.200100e+01
      vertex -1.192850e+01 3.499500e+00 7.797000e+00
    endloop
  endfacet
  facet normal 0.000000e+00 -1.000000e+00 0.000000e+00
    outer loop
      vertex -1.975050e+01 3.499500e+00 1.200100e+01
      vertex -1.446550e+01 3.499500e+00 8.347000e+00
      vertex -1.233909e+01 3.499500e+00 1.200100e+01
    endloop
  endfacet
  facet normal -2.095736e-01 9.777929e-01 0.000000e+00
    outer loop
      vertex -6.748500e+00 9.928501e+00 6.001000e+00
      vertex 5.250500e+00 1.250029e+01 1.200100e+01
      vertex 5.250500e+00 1.250029e+01 1.500000e-03
    endloop
  endfacet
  facet normal 0.000000e+00 0.000000e+00 1.000000e+00
    outer loop
      vertex 1.975050e+01 1.250050e+01 1.200100e+01
      vertex 1.825350e+01 1.100250e+01 1.200100e+01
      vertex 1.975050e+01 -1.250050e+01 1.200100e+01
    endloop
  endfacet
  facet normal 0.000000e+00 0.000000e+00 1.000000e+00
    outer loop
      vertex 1.825350e+01 -1.250050e+01 1.200100e+01
      vertex 1.975050e+01 -1.250050e+01 1.200100e+01
      vertex 1.825350e+01 1.100250e+01 1.200100e+01
    endloop
  endfacet
  facet normal 0.000000e+00 -1.000000e+00 0.000000e+00
    outer loop
      vertex -1.142350e+01 3.499500e+00 6.973000e+00
      vertex 5.250500e+00 3.499500e+00 1.200100e+01
      vertex -1.192850e+01 3.499500e+00 7.797000e+00
    endloop
  endfacet
  facet normal 8.526161e-01 0.000000e+00 -5.225378e-01
    outer loop
      vertex -1.522050e+01 6.608500e+00 7.797000e+00
      vertex -1.522050e+01 3.499500e+00 7.797000e+00
      vertex -1.572550e+01 3.499500e+00 6.973000e+00
    endloop
  endfacet
  facet normal 8.526161e-01 0.000000e+00 -5.225378e-01
    outer loop
      vertex -1.522050e+01 6.608500e+00 7.797000e+00
      vertex -1.572550e+01 3.499500e+00 6.973000e+00
      vertex -1.572550e+01 6.608500e+00 6.973000e+00
    endloop
  endfacet
  facet normal 0.000000e+00 -1.000000e+00 0.000000e+00
    outer loop
      vertex -1.268350e+01 3.499500e+00 8.347000e+00
      vertex -1.192850e+01 3.499500e+00 7.797000e+00
      vertex -1.233909e+01 3.499500e+00 1.200100e+01
    endloop
  endfacet
  facet normal 1.000000e+00 0.000000e+00 0.000000e+00
    outer loop
      vertex 6.747500e+00 1.100250e+01 1.498000e+00
      vertex 6.747500e+00 1.100250e+01 1.200100e+01
      vertex 6.747500e+00 -1.250050e+01 1.498000e+00
    endloop
  endfacet
  facet normal 1.000000e+00 0.000000e+00 0.000000e+00
    outer loop
      vertex 6.747500e+00 -1.250050e+01 1.200100e+01
      vertex 6.747500e+00 -1.250050e+01 1.498000e+00
      vertex 6.747500e+00 1.100250e+01 1.200100e+01
    endloop
  endfacet
  facet normal 5.888081e-01 0.000000e+00 -8.082729e-01
    outer loop
      vertex -1.446550e+01 6.608500e+00 8.347000e+00
      vertex -1.446550e+01 3.499500e+00 8.347000e+00
      vertex -1.522050e+01 3.499500e+00 7.797000e+00
    endloop
  endfacet
  facet normal 5.888081e-01 0.000000e+00 -8.082729e-01
    outer loop
      vertex -1.446550e+01 6.608500e+00 8.347000e+00
      vertex -1.522050e+01 3.499500e+00 7.797000e+00
      vertex -1.522050e+01 6.608500e+00 7.797000e+00
    endloop
  endfacet
  facet normal -1.000000e+00 0.000000e+00 0.000000e+00
    outer loop
      vertex 1.825350e+01 1.100250e+01 1.200100e+01
      vertex 1.825350e+01 1.100250e+01 1.498000e+00
      vertex 1.825350e+01 -1.250050e+01 1.200100e+01
    endloop
  endfacet
  facet normal 0.000000e+00 -1.000000e+00 0.000000e+00
    outer loop
      vertex -1.192850e+01 3.499500e+00 4.205000e+00
      vertex 5.250500e+00 3.499500e+00 1.000000e-03
      vertex -1.142350e+01 3.499500e+00 5.029000e+00
    endloop
  endfacet
  facet normal 0.000000e+00 -1.000000e+00 0.000000e+00
    outer loop
      vertex -1.142350e+01 3.499500e+00 5.029000e+00
      vertex 5.250500e+00 3.499500e+00 1.000000e-03
      vertex -1.124650e+01 3.499500e+00 6.001000e+00
    endloop
  endfacet
  facet normal 1.000000e+00 0.000000e+00 0.000000e+00
    outer loop
      vertex 5.251500e+00 1.250050e+01 1.200100e+01
      vertex 5.251500e+00 1.250050e+01 1.200100e+01
      vertex 5.251500e+00 1.250050e+01 1.200200e+01
    endloop
  endfacet
  facet normal 0.000000e+00 0.000000e+00 1.000000e+00
    outer loop
      vertex 1.825350e+01 1.100250e+01 1.498000e+00
      vertex 6.747500e+00 1.100250e+01 1.498000e+00
      vertex 6.747500e+00 -1.250050e+01 1.498000e+00
    endloop
  endfacet
  facet normal 2.117010e-01 0.000000e+00 -9.773345e-01
    outer loop
      vertex -1.446550e+01 3.499500e+00 8.347000e+00
      vertex -1.446550e+01 6.608500e+00 8.347000e+00
      vertex -1.357450e+01 6.608500e+00 8.540000e+00
    endloop
  endfacet
  facet normal 2.117010e-01 0.000000e+00 -9.773345e-01
    outer loop
      vertex -1.446550e+01 3.499500e+00 8.347000e+00
      vertex -1.357450e+01 6.608500e+00 8.540000e+00
      vertex -1.357450e+01 3.499500e+00 8.540000e+00
    endloop
  endfacet
  facet normal 0.000000e+00 -1.000000e+00 0.000000e+00
    outer loop
      vertex -1.268350e+01 3.499500e+00 3.655000e+00
      vertex 5.250500e+00 3.499500e+00 1.000000e-03
      vertex -1.192850e+01 3.499500e+00 4.205000e+00
    endloop
  endfacet
  facet normal 1.000000e+00 0.000000e+00 0.000000e+00
    outer loop
      vertex 5.251500e+00 1.250050e+01 1.200200e+01
      vertex 5.251500e+00 7.356500e+00 1.200200e+01
      vertex 5.251500e+00 7.356500e+00 1.200100e+01
    endloop
  endfacet
  facet normal 1.000000e+00 0.000000e+00 0.000000e+00
    outer loop
      vertex 5.251500e+00 1.250050e+01 1.200200e+01
      vertex 5.251500e+00 7.356500e+00 1.200100e+01
      vertex 5.251500e+00 1.250050e+01 1.200100e+01
    endloop
  endfacet
  facet normal 0.000000e+00 -1.000000e+00 0.000000e+00
    outer loop
      vertex -1.874950e+01 7.356500e+00 1.200200e+01
      vertex -1.874950e+01 7.356500e+00 1.200100e+01
      vertex -1.874950e+01 7.356500e+00 1.200100e+01
    endloop
  endfacet
  facet normal -1.000000e+00 0.000000e+00 0.000000e+00
    outer loop
      vertex 5.250500e+00 1.250050e+01 0.000000e+00
      vertex 5.250500e+00 -1.250050e+01 0.000000e+00
      vertex 5.250500e+00 1.250029e+01 1.000000e-03
    endloop
  endfacet
  facet normal -1.000000e+00 0.000000e+00 0.000000e+00
    outer loop
      vertex 5.250500e+00 7.357500e+00 1.000000e-03
      vertex 5.250500e+00 1.250029e+01 1.000000e-03
      vertex 5.250500e+00 -1.250050e+01 0.000000e+00
    endloop
  endfacet
  facet normal -2.117010e-01 0.000000e+00 -9.773345e-01
    outer loop
      vertex -1.357450e+01 3.499500e+00 8.540000e+00
      vertex -1.357450e+01 6.608500e+00 8.540000e+00
      vertex -1.268350e+01 6.608500e+00 8.347000e+00
    endloop
  endfacet
  facet normal -2.117010e-01 0.000000e+00 -9.773345e-01
    outer loop
      vertex -1.357450e+01 3.499500e+00 8.540000e+00
      vertex -1.268350e+01 6.608500e+00 8.347000e+00
      vertex -1.268350e+01 3.499500e+00 8.347000e+00
    endloop
  endfacet
  facet normal 0.000000e+00 -1.000000e+00 0.000000e+00
    outer loop
      vertex -1.874950e+01 7.356500e+00 1.200100e+01
      vertex 5.251500e+00 7.356500e+00 1.200100e+01
      vertex -1.874950e+01 7.356500e+00 1.200200e+01
    endloop
  endfacet
  facet normal 0.000000e+00 -1.000000e+00 0.000000e+00
    outer loop
      vertex 5.251500e+00 7.356500e+00 1.200200e+01
      vertex -1.874950e+01 7.356500e+00 1.200200e+01
      vertex 5.251500e+00 7.356500e+00 1.200100e+01
    endloop
  endfacet
  facet normal 0.000000e+00 0.000000e+00 -1.000000e+00
    outer loop
      vertex 5.250500e+00 7.357500e+00 1.000000e-03
      vertex -1.874384e+01 7.357500e+00 1.000000e-03
      vertex 5.250500e+00 1.250029e+01 1.000000e-03
    endloop
  endfacet
  facet normal 0.000000e+00 0.000000e+00 -1.000000e+00
    outer loop
      vertex 5.250500e+00 1.250029e+01 1.000000e-03
      vertex -1.874384e+01 7.357500e+00 1.000000e-03
      vertex -1.874384e+01 7.357500e+00 1.000000e-03
    endloop
  endfacet
  facet normal -5.888081e-01 0.000000e+00 -8.082729e-01
    outer loop
      vertex -1.268350e+01 3.499500e+00 8.347000e+00
      vertex -1.268350e+01 6.608500e+00 8.347000e+00
      vertex -1.192850e+01 6.608500e+00 7.797000e+00
    endloop
  endfacet
  facet normal -5.888081e-01 0.000000e+00 -8.082729e-01
    outer loop
      vertex -1.268350e+01 3.499500e+00 8.347000e+00
      vertex -1.192850e+01 6.608500e+00 7.797000e+00
      vertex -1.192850e+01 3.499500e+00 7.797000e+00
    endloop
  endfacet
  facet normal -2.095569e-01 9.777964e-01 0.000000e+00
    outer loop
      vertex -1.874750e+01 7.356929e+00 1.200100e+01
      vertex -1.874950e+01 7.356500e+00 1.200100e+01
      vertex -1.874950e+01 7.356500e+00 1.200200e+01
    endloop
  endfacet
  facet normal -2.095653e-01 9.777946e-01 -1.746086e-05
    outer loop
      vertex 5.251500e+00 1.250050e+01 1.200200e+01
      vertex -1.874483e+01 7.357500e+00 1.200100e+01
      vertex -1.874950e+01 7.356500e+00 1.200200e+01
    endloop
  endfacet
  facet normal -2.095653e-01 9.777946e-01 -1.746086e-05
    outer loop
      vertex -1.874750e+01 7.356929e+00 1.200100e+01
      vertex -1.874950e+01 7.356500e+00 1.200200e+01
      vertex -1.874483e+01 7.357500e+00 1.200100e+01
    endloop
  endfacet
  facet normal 0.000000e+00 0.000000e+00 1.000000e+00
    outer loop
      vertex 5.251500e+00 7.356500e+00 1.200200e+01
      vertex 5.251500e+00 1.250050e+01 1.200200e+01
      vertex -1.874950e+01 7.356500e+00 1.200200e+01
    endloop
  endfacet
  facet normal -8.526161e-01 0.000000e+00 -5.225378e-01
    outer loop
      vertex -1.192850e+01 3.499500e+00 7.797000e+00
      vertex -1.192850e+01 6.608500e+00 7.797000e+00
      vertex -1.142350e+01 6.608500e+00 6.973000e+00
    endloop
  endfacet
  facet normal -8.526161e-01 0.000000e+00 -5.225378e-01
    outer loop
      vertex -1.192850e+01 3.499500e+00 7.797000e+00
      vertex -1.142350e+01 6.608500e+00 6.973000e+00
      vertex -1.142350e+01 3.499500e+00 6.973000e+00
    endloop
  endfacet
  facet normal -2.095653e-01 9.777946e-01 -1.746086e-05
    outer loop
      vertex 5.251500e+00 1.250050e+01 1.200200e+01
      vertex -6.748500e+00 9.928501e+00 6.001000e+00
      vertex -1.874483e+01 7.357500e+00 1.200100e+01
    endloop
  endfacet
  facet normal -2.095653e-01 9.777946e-01 -1.746086e-05
    outer loop
      vertex -1.874483e+01 7.357500e+00 1.200100e+01
      vertex -6.748500e+00 9.928501e+00 6.001000e+00
      vertex -1.874483e+01 7.357500e+00 1.199967e+01
    endloop
  endfacet
  facet normal 0.000000e+00 1.000000e+00 0.000000e+00
    outer loop
      vertex 5.250500e+00 1.250050e+01 0.000000e+00
      vertex 5.251500e+00 1.250050e+01 1.200100e+01
      vertex 1.975050e+01 1.250050e+01 0.000000e+00
    endloop
  endfacet
  facet normal 0.000000e+00 1.000000e+00 0.000000e+00
    outer loop
      vertex 1.975050e+01 1.250050e+01 1.200100e+01
      vertex 1.975050e+01 1.250050e+01 0.000000e+00
      vertex 5.251500e+00 1.250050e+01 1.200100e+01
    endloop
  endfacet
  facet normal -9.838213e-01 0.000000e+00 -1.791526e-01
    outer loop
      vertex -1.142350e+01 3.499500e+00 6.973000e+00
      vertex -1.142350e+01 6.608500e+00 6.973000e+00
      vertex -1.124650e+01 6.608500e+00 6.001000e+00
    endloop
  endfacet
  facet normal -9.838213e-01 0.000000e+00 -1.791526e-01
    outer loop
      vertex -1.142350e+01 3.499500e+00 6.973000e+00
      vertex -1.124650e+01 6.608500e+00 6.001000e+00
      vertex -1.124650e+01 3.499500e+00 6.001000e+00
    endloop
  endfacet
  facet normal 0.000000e+00 0.000000e+00 -1.000000e+00
    outer loop
      vertex 5.250500e+00 -1.250050e+01 0.000000e+00
      vertex 5.250500e+00 1.250050e+01 0.000000e+00
      vertex 1.975050e+01 -1.250050e+01 0.000000e+00
    endloop
  endfacet
  facet normal -9.838213e-01 0.000000e+00 1.791526e-01
    outer loop
      vertex -1.124650e+01 3.499500e+00 6.001000e+00
      vertex -1.124650e+01 6.608500e+00 6.001000e+00
      vertex -1.142350e+01 6.608500e+00 5.029000e+00
    endloop
  endfacet
  facet normal -9.838213e-01 0.000000e+00 1.791526e-01
    outer loop
      vertex -1.124650e+01 3.499500e+00 6.001000e+00
      vertex -1.142350e+01 6.608500e+00 5.029000e+00
      vertex -1.142350e+01 3.499500e+00 5.029000e+00
    endloop
  endfacet
  facet normal 0.000000e+00 0.000000e+00 -1.000000e+00
    outer loop
      vertex 1.975050e+01 1.250050e+01 0.000000e+00
      vertex 1.975050e+01 -1.250050e+01 0.000000e+00
      vertex 5.250500e+00 1.250050e+01 0.000000e+00
    endloop
  endfacet
  facet normal -8.526161e-01 0.000000e+00 5.225378e-01
    outer loop
      vertex -1.142350e+01 3.499500e+00 5.029000e+00
      vertex -1.142350e+01 6.608500e+00 5.029000e+00
      vertex -1.192850e+01 6.608500e+00 4.205000e+00
    endloop
  endfacet
  facet normal -8.526161e-01 0.000000e+00 5.225378e-01
    outer loop
      vertex -1.142350e+01 3.499500e+00 5.029000e+00
      vertex -1.192850e+01 6.608500e+00 4.205000e+00
      vertex -1.192850e+01 3.499500e+00 4.205000e+00
    endloop
  endfacet
  facet normal -5.888081e-01 0.000000e+00 8.082729e-01
    outer loop
      vertex -1.192850e+01 3.499500e+00 4.205000e+00
      vertex -1.192850e+01 6.608500e+00 4.205000e+00
      vertex -1.268350e+01 6.608500e+00 3.655000e+00
    endloop
  endfacet
  facet normal -5.888081e-01 0.000000e+00 8.082729e-01
    outer loop
      vertex -1.192850e+01 3.499500e+00 4.205000e+00
      vertex -1.268350e+01 6.608500e+00 3.655000e+00
      vertex -1.268350e+01 3.499500e+00 3.655000e+00
    endloop
  endfacet
  facet normal -2.117010e-01 0.000000e+00 9.773345e-01
    outer loop
      vertex -1.268350e+01 3.499500e+00 3.655000e+00
      vertex -1.268350e+01 6.608500e+00 3.655000e+00
      vertex -1.357450e+01 6.608500e+00 3.462000e+00
    endloop
  endfacet
  facet normal -2.117010e-01 0.000000e+00 9.773345e-01
    outer loop
      vertex -1.268350e+01 3.499500e+00 3.655000e+00
      vertex -1.357450e+01 6.608500e+00 3.462000e+00
      vertex -1.357450e+01 3.499500e+00 3.462000e+00
    endloop
  endfacet
  facet normal 0.000000e+00 -1.000000e+00 0.000000e+00
    outer loop
      vertex -1.446550e+01 6.608500e+00 3.655000e+00
      vertex -1.357450e+01 6.608500e+00 3.462000e+00
      vertex -1.268350e+01 6.608500e+00 3.655000e+00
    endloop
  endfacet
  facet normal 0.000000e+00 -1.000000e+00 0.000000e+00
    outer loop
      vertex -1.446550e+01 6.608500e+00 3.655000e+00
      vertex -1.268350e+01 6.608500e+00 3.655000e+00
      vertex -1.192850e+01 6.608500e+00 4.205000e+00
    endloop
  endfacet
  facet normal 0.000000e+00 -1.000000e+00 0.000000e+00
    outer loop
      vertex -1.446550e+01 6.608500e+00 3.655000e+00
      vertex -1.192850e+01 6.608500e+00 4.205000e+00
      vertex -1.142350e+01 6.608500e+00 5.029000e+00
    endloop
  endfacet
  facet normal 0.000000e+00 -1.000000e+00 0.000000e+00
    outer loop
      vertex -1.446550e+01 6.608500e+00 3.655000e+00
      vertex -1.142350e+01 6.608500e+00 5.029000e+00
      vertex -1.124650e+01 6.608500e+00 6.001000e+00
    endloop
  endfacet
  facet normal 0.000000e+00 -1.000000e+00 0.000000e+00
    outer loop
      vertex -1.446550e+01 6.608500e+00 3.655000e+00
      vertex -1.124650e+01 6.608500e+00 6.001000e+00
      vertex -1.142350e+01 6.608500e+00 6.973000e+00
    endloop
  endfacet
  facet normal 0.000000e+00 -1.000000e+00 0.000000e+00
    outer loop
      vertex -1.446550e+01 6.608500e+00 3.655000e+00
      vertex -1.142350e+01 6.608500e+00 6.973000e+00
      vertex -1.192850e+01 6.608500e+00 7.797000e+00
    endloop
  endfacet
  facet normal 0.000000e+00 -1.000000e+00 0.000000e+00
    outer loop
      vertex -1.446550e+01 6.608500e+00 3.655000e+00
      vertex -1.192850e+01 6.608500e+00 7.797000e+00
      vertex -1.268350e+01 6.608500e+00 8.347000e+00
    endloop
  endfacet
  facet normal 0.000000e+00 -1.000000e+00 0.000000e+00
    outer loop
      vertex -1.446550e+01 6.608500e+00 3.655000e+00
      vertex -1.268350e+01 6.608500e+00 8.347000e+00
      vertex -1.357450e+01 6.608500e+00 8.540000e+00
    endloop
  endfacet
  facet normal 0.000000e+00 -1.000000e+00 0.000000e+00
    outer loop
      vertex -1.446550e+01 6.608500e+00 3.655000e+00
      vertex -1.357450e+01 6.608500e+00 8.540000e+00
      vertex -1.446550e+01 6.608500e+00 8.347000e+00
    endloop
  endfacet
  facet normal 0.000000e+00 -1.000000e+00 0.000000e+00
    outer loop
      vertex -1.446550e+01 6.608500e+00 3.655000e+00
      vertex -1.446550e+01 6.608500e+00 8.347000e+00
      vertex -1.522050e+01 6.608500e+00 7.797000e+00
    endloop
  endfacet
  facet normal 0.000000e+00 -1.000000e+00 0.000000e+00
    outer loop
      vertex -1.446550e+01 6.608500e+00 3.655000e+00
      vertex -1.522050e+01 6.608500e+00 7.797000e+00
      vertex -1.572550e+01 6.608500e+00 6.973000e+00
    endloop
  endfacet
  facet normal 0.000000e+00 -1.000000e+00 0.000000e+00
    outer loop
      vertex -1.446550e+01 6.608500e+00 3.655000e+00
      vertex -1.572550e+01 6.608500e+00 6.973000e+00
      vertex -1.590250e+01 6.608500e+00 6.001000e+00
    endloop
  endfacet
  facet normal 0.000000e+00 -1.000000e+00 0.000000e+00
    outer loop
      vertex -1.446550e+01 6.608500e+00 3.655000e+00
      vertex -1.590250e+01 6.608500e+00 6.001000e+00
      vertex -1.572550e+01 6.608500e+00 5.029000e+00
    endloop
  endfacet
  facet normal 0.000000e+00 -1.000000e+00 0.000000e+00
    outer loop
      vertex -1.446550e+01 6.608500e+00 3.655000e+00
      vertex -1.572550e+01 6.608500e+00 5.029000e+00
      vertex -1.522050e+01 6.608500e+00 4.205000e+00
    endloop
  endfacet
endsolid Default
