solid Default
  facet normal 0.000000e+00 -1.000000e+00 0.000000e+00
    outer loop
      vertex -9.500999e+00 -3.000000e+01 2.600100e+01
      vertex -9.500999e+00 -3.000000e+01 2.000000e+01
      vertex 5.500999e+00 -3.000000e+01 2.000000e+01
    endloop
  endfacet
  facet normal 0.000000e+00 -1.000000e+00 0.000000e+00
    outer loop
      vertex -9.500999e+00 -3.000000e+01 2.600100e+01
      vertex 5.500999e+00 -3.000000e+01 2.000000e+01
      vertex 5.500999e+00 -3.000000e+01 2.600100e+01
    endloop
  endfacet
  facet normal 0.000000e+00 0.000000e+00 -1.000000e+00
    outer loop
      vertex 5.500999e+00 -1.500000e+01 1.000000e-03
      vertex 5.500999e+00 -2.000000e+01 1.000000e-03
      vertex -9.500999e+00 -1.500000e+01 1.000000e-03
    endloop
  endfacet
  facet normal 1.000000e+00 0.000000e+00 0.000000e+00
    outer loop
      vertex 5.500999e+00 1.741200e+01 1.428800e+01
      vertex 5.500999e+00 1.640200e+01 1.095700e+01
      vertex 5.500999e+00 2.000100e+01 1.439848e-01
    endloop
  endfacet
  facet normal 1.000000e+00 0.000000e+00 0.000000e+00
    outer loop
      vertex 5.500999e+00 1.775300e+01 1.775100e+01
      vertex 5.500999e+00 1.741200e+01 1.428800e+01
      vertex 5.500999e+00 2.000100e+01 2.000000e+01
    endloop
  endfacet
  facet normal 0.000000e+00 0.000000e+00 1.000000e+00
    outer loop
      vertex 5.500999e+00 1.800000e+01 2.000100e+01
      vertex -9.500999e+00 1.753144e+01 2.000100e+01
      vertex 5.500999e+00 1.753144e+01 2.000100e+01
    endloop
  endfacet
  facet normal 7.075360e-01 -7.066773e-01 0.000000e+00
    outer loop
      vertex 4.487600e+01 -1.949000e+00 1.500100e+01
      vertex 4.487600e+01 -1.949000e+00 4.002000e+00
      vertex 4.569900e+01 -1.125000e+00 4.002000e+00
    endloop
  endfacet
  facet normal 7.075360e-01 -7.066773e-01 0.000000e+00
    outer loop
      vertex 4.487600e+01 -1.949000e+00 1.500100e+01
      vertex 4.569900e+01 -1.125000e+00 4.002000e+00
      vertex 4.569900e+01 -1.125000e+00 1.500100e+01
    endloop
  endfacet
  facet normal 2.590505e-01 -9.658638e-01 0.000000e+00
    outer loop
      vertex 4.375000e+01 -2.251000e+00 1.500100e+01
      vertex 4.375000e+01 -2.251000e+00 4.002000e+00
      vertex 4.487600e+01 -1.949000e+00 4.002000e+00
    endloop
  endfacet
  facet normal 2.590505e-01 -9.658638e-01 0.000000e+00
    outer loop
      vertex 4.375000e+01 -2.251000e+00 1.500100e+01
      vertex 4.487600e+01 -1.949000e+00 4.002000e+00
      vertex 4.487600e+01 -1.949000e+00 1.500100e+01
    endloop
  endfacet
  facet normal 0.000000e+00 -2.901669e-01 9.569761e-01
    outer loop
      vertex 6.502998e+00 6.794000e+00 1.349000e+00
      vertex -1.150300e+01 6.794000e+00 1.349000e+00
      vertex -1.150300e+01 3.463000e+00 3.390000e-01
    endloop
  endfacet
  facet normal 0.000000e+00 -2.901669e-01 9.569761e-01
    outer loop
      vertex 6.502998e+00 6.794000e+00 1.349000e+00
      vertex -1.150300e+01 3.463000e+00 3.390000e-01
      vertex 6.502998e+00 3.463000e+00 3.390000e-01
    endloop
  endfacet
  facet normal 0.000000e+00 0.000000e+00 1.000000e+00
    outer loop
      vertex -9.500999e+00 1.800000e+01 2.000100e+01
      vertex -9.500999e+00 1.753144e+01 2.000100e+01
      vertex 5.500999e+00 1.800000e+01 2.000100e+01
    endloop
  endfacet
  facet normal 0.000000e+00 -4.715275e-01 8.818513e-01
    outer loop
      vertex 6.502998e+00 9.863000e+00 2.990000e+00
      vertex -1.150300e+01 9.863000e+00 2.990000e+00
      vertex -1.150300e+01 6.794000e+00 1.349000e+00
    endloop
  endfacet
  facet normal 0.000000e+00 -4.715275e-01 8.818513e-01
    outer loop
      vertex 6.502998e+00 9.863000e+00 2.990000e+00
      vertex -1.150300e+01 6.794000e+00 1.349000e+00
      vertex 6.502998e+00 6.794000e+00 1.349000e+00
    endloop
  endfacet
  facet normal -2.592653e-01 -9.658061e-01 0.000000e+00
    outer loop
      vertex 4.262500e+01 -1.949000e+00 1.500100e+01
      vertex 4.262500e+01 -1.949000e+00 4.002000e+00
      vertex 4.375000e+01 -2.251000e+00 4.002000e+00
    endloop
  endfacet
  facet normal -2.592653e-01 -9.658061e-01 0.000000e+00
    outer loop
      vertex 4.262500e+01 -1.949000e+00 1.500100e+01
      vertex 4.375000e+01 -2.251000e+00 4.002000e+00
      vertex 4.375000e+01 -2.251000e+00 1.500100e+01
    endloop
  endfacet
  facet normal -1.000000e+00 0.000000e+00 0.000000e+00
    outer loop
      vertex -9.500999e+00 1.741200e+01 1.428800e+01
      vertex -9.500999e+00 2.000100e+01 1.439848e-01
      vertex -9.500999e+00 1.640200e+01 1.095700e+01
    endloop
  endfacet
  facet normal -1.000000e+00 0.000000e+00 0.000000e+00
    outer loop
      vertex -9.500999e+00 1.500000e+01 4.002000e+00
      vertex -9.500999e+00 1.476100e+01 7.888000e+00
      vertex -9.500999e+00 2.000100e+01 1.439848e-01
    endloop
  endfacet
  facet normal -7.071068e-01 -7.071068e-01 0.000000e+00
    outer loop
      vertex 4.180100e+01 -1.125000e+00 1.500100e+01
      vertex 4.180100e+01 -1.125000e+00 4.002000e+00
      vertex 4.262500e+01 -1.949000e+00 4.002000e+00
    endloop
  endfacet
  facet normal -7.071068e-01 -7.071068e-01 0.000000e+00
    outer loop
      vertex 4.180100e+01 -1.125000e+00 1.500100e+01
      vertex 4.262500e+01 -1.949000e+00 4.002000e+00
      vertex 4.262500e+01 -1.949000e+00 1.500100e+01
    endloop
  endfacet
  facet normal 1.000000e+00 0.000000e+00 0.000000e+00
    outer loop
      vertex 5.500999e+00 -1.741200e+01 1.428800e+01
      vertex 5.500999e+00 -2.000000e+01 1.419989e-01
      vertex 5.500999e+00 -1.640200e+01 1.095700e+01
    endloop
  endfacet
  facet normal 0.000000e+00 -6.344575e-01 7.729577e-01
    outer loop
      vertex 5.500999e+00 1.109592e+01 4.002000e+00
      vertex -9.500999e+00 1.109592e+01 4.002000e+00
      vertex 6.502998e+00 9.863000e+00 2.990000e+00
    endloop
  endfacet
  facet normal 0.000000e+00 -6.344575e-01 7.729577e-01
    outer loop
      vertex 6.502998e+00 1.109592e+01 4.002000e+00
      vertex 5.500999e+00 1.109592e+01 4.002000e+00
      vertex 6.502998e+00 9.863000e+00 2.990000e+00
    endloop
  endfacet
  facet normal 0.000000e+00 -6.344575e-01 7.729577e-01
    outer loop
      vertex -1.150300e+01 9.863000e+00 2.990000e+00
      vertex 6.502998e+00 9.863000e+00 2.990000e+00
      vertex -9.500999e+00 1.109592e+01 4.002000e+00
    endloop
  endfacet
  facet normal 0.000000e+00 -6.344575e-01 7.729577e-01
    outer loop
      vertex -1.150300e+01 1.109592e+01 4.002000e+00
      vertex -1.150300e+01 9.863000e+00 2.990000e+00
      vertex -9.500999e+00 1.109592e+01 4.002000e+00
    endloop
  endfacet
  facet normal -1.000000e+00 0.000000e+00 0.000000e+00
    outer loop
      vertex -9.500999e+00 1.775300e+01 1.775100e+01
      vertex -9.500999e+00 2.000100e+01 2.000000e+01
      vertex -9.500999e+00 1.741200e+01 1.428800e+01
    endloop
  endfacet
  facet normal -1.000000e+00 0.000000e+00 0.000000e+00
    outer loop
      vertex 6.502998e+00 -2.031088e-02 0.000000e+00
      vertex 6.502998e+00 -1.109592e+01 4.002000e+00
      vertex 6.502998e+00 2.031088e-02 0.000000e+00
    endloop
  endfacet
  facet normal -9.660208e-01 -2.584642e-01 0.000000e+00
    outer loop
      vertex 4.150000e+01 0.000000e+00 1.500100e+01
      vertex 4.150000e+01 0.000000e+00 4.002000e+00
      vertex 4.180100e+01 -1.125000e+00 4.002000e+00
    endloop
  endfacet
  facet normal -9.660208e-01 -2.584642e-01 0.000000e+00
    outer loop
      vertex 4.150000e+01 0.000000e+00 1.500100e+01
      vertex 4.180100e+01 -1.125000e+00 4.002000e+00
      vertex 4.180100e+01 -1.125000e+00 1.500100e+01
    endloop
  endfacet
  facet normal 1.000000e+00 0.000000e+00 0.000000e+00
    outer loop
      vertex 5.500999e+00 -1.500000e+01 4.002000e+00
      vertex 5.500999e+00 -2.000000e+01 1.419989e-01
      vertex 5.500999e+00 -1.500000e+01 1.000000e-03
    endloop
  endfacet
  facet normal -9.660208e-01 2.584642e-01 0.000000e+00
    outer loop
      vertex 4.180100e+01 1.125000e+00 1.500100e+01
      vertex 4.180100e+01 1.125000e+00 4.002000e+00
      vertex 4.150000e+01 0.000000e+00 4.002000e+00
    endloop
  endfacet
  facet normal -9.660208e-01 2.584642e-01 0.000000e+00
    outer loop
      vertex 4.180100e+01 1.125000e+00 1.500100e+01
      vertex 4.150000e+01 0.000000e+00 4.002000e+00
      vertex 4.150000e+01 0.000000e+00 1.500100e+01
    endloop
  endfacet
  facet normal -1.000000e+00 0.000000e+00 0.000000e+00
    outer loop
      vertex -9.500999e+00 2.000100e+01 2.000000e+01
      vertex -9.500999e+00 2.000100e+01 1.439848e-01
      vertex -9.500999e+00 1.741200e+01 1.428800e+01
    endloop
  endfacet
  facet normal -1.000000e+00 0.000000e+00 0.000000e+00
    outer loop
      vertex -9.500999e+00 1.800000e+01 2.000100e+01
      vertex -9.500999e+00 2.000100e+01 2.000000e+01
      vertex -9.500999e+00 1.775300e+01 1.775100e+01
    endloop
  endfacet
  facet normal -1.000000e+00 0.000000e+00 0.000000e+00
    outer loop
      vertex -9.500999e+00 1.800000e+01 2.000100e+01
      vertex -9.500999e+00 1.775300e+01 1.775100e+01
      vertex -9.500999e+00 1.753144e+01 2.000100e+01
    endloop
  endfacet
  facet normal 0.000000e+00 -8.818513e-01 4.715275e-01
    outer loop
      vertex 5.500999e+00 1.640200e+01 1.095700e+01
      vertex -9.500999e+00 1.640200e+01 1.095700e+01
      vertex 5.500999e+00 1.476100e+01 7.888000e+00
    endloop
  endfacet
  facet normal -7.071068e-01 7.071068e-01 0.000000e+00
    outer loop
      vertex 4.262500e+01 1.949000e+00 1.500100e+01
      vertex 4.262500e+01 1.949000e+00 4.002000e+00
      vertex 4.180100e+01 1.125000e+00 4.002000e+00
    endloop
  endfacet
  facet normal -7.071068e-01 7.071068e-01 0.000000e+00
    outer loop
      vertex 4.262500e+01 1.949000e+00 1.500100e+01
      vertex 4.180100e+01 1.125000e+00 4.002000e+00
      vertex 4.180100e+01 1.125000e+00 1.500100e+01
    endloop
  endfacet
  facet normal 0.000000e+00 -9.569761e-01 2.901669e-01
    outer loop
      vertex 5.500999e+00 1.741200e+01 1.428800e+01
      vertex -9.500999e+00 1.741200e+01 1.428800e+01
      vertex -9.500999e+00 1.640200e+01 1.095700e+01
    endloop
  endfacet
  facet normal 0.000000e+00 -9.569761e-01 2.901669e-01
    outer loop
      vertex 5.500999e+00 1.741200e+01 1.428800e+01
      vertex -9.500999e+00 1.640200e+01 1.095700e+01
      vertex 5.500999e+00 1.640200e+01 1.095700e+01
    endloop
  endfacet
  facet normal 1.000000e+00 0.000000e+00 0.000000e+00
    outer loop
      vertex 5.500999e+00 -1.476100e+01 7.888000e+00
      vertex 5.500999e+00 -2.000000e+01 1.419989e-01
      vertex 5.500999e+00 -1.500000e+01 4.002000e+00
    endloop
  endfacet
  facet normal 1.000000e+00 0.000000e+00 0.000000e+00
    outer loop
      vertex 5.500999e+00 -1.775300e+01 1.775100e+01
      vertex 5.500999e+00 -2.000000e+01 2.000000e+01
      vertex 5.500999e+00 -1.741200e+01 1.428800e+01
    endloop
  endfacet
  facet normal 1.000000e+00 0.000000e+00 0.000000e+00
    outer loop
      vertex 5.500999e+00 -1.800000e+01 2.000100e+01
      vertex 5.500999e+00 -2.000000e+01 2.000000e+01
      vertex 5.500999e+00 -1.775300e+01 1.775100e+01
    endloop
  endfacet
  facet normal 1.000000e+00 0.000000e+00 0.000000e+00
    outer loop
      vertex 5.500999e+00 -1.753144e+01 2.000100e+01
      vertex 5.500999e+00 -1.800000e+01 2.000100e+01
      vertex 5.500999e+00 -1.775300e+01 1.775100e+01
    endloop
  endfacet
  facet normal 1.000000e+00 0.000000e+00 0.000000e+00
    outer loop
      vertex 5.500999e+00 -2.000000e+01 2.000000e+01
      vertex 5.500999e+00 -2.000000e+01 1.419989e-01
      vertex 5.500999e+00 -1.741200e+01 1.428800e+01
    endloop
  endfacet
  facet normal 1.000000e+00 0.000000e+00 0.000000e+00
    outer loop
      vertex 5.500999e+00 -2.000000e+01 1.000000e-03
      vertex 5.500999e+00 -1.500000e+01 1.000000e-03
      vertex 5.500999e+00 -2.000000e+01 1.419989e-01
    endloop
  endfacet
  facet normal -2.592653e-01 9.658061e-01 0.000000e+00
    outer loop
      vertex 4.375000e+01 2.251000e+00 1.500100e+01
      vertex 4.375000e+01 2.251000e+00 4.002000e+00
      vertex 4.262500e+01 1.949000e+00 4.002000e+00
    endloop
  endfacet
  facet normal -2.592653e-01 9.658061e-01 0.000000e+00
    outer loop
      vertex 4.375000e+01 2.251000e+00 1.500100e+01
      vertex 4.262500e+01 1.949000e+00 4.002000e+00
      vertex 4.262500e+01 1.949000e+00 1.500100e+01
    endloop
  endfacet
  facet normal -1.000000e+00 0.000000e+00 0.000000e+00
    outer loop
      vertex 6.502998e+00 3.463000e+00 3.390000e-01
      vertex 6.502998e+00 2.031088e-02 0.000000e+00
      vertex 6.502998e+00 -1.109592e+01 4.002000e+00
    endloop
  endfacet
  facet normal -1.000000e+00 0.000000e+00 0.000000e+00
    outer loop
      vertex 6.502998e+00 -1.109592e+01 4.002000e+00
      vertex 6.502998e+00 -2.031088e-02 0.000000e+00
      vertex 6.502998e+00 -3.463000e+00 3.390000e-01
    endloop
  endfacet
  facet normal -1.000000e+00 0.000000e+00 0.000000e+00
    outer loop
      vertex 6.502998e+00 -6.794000e+00 1.349000e+00
      vertex 6.502998e+00 -9.863000e+00 2.990000e+00
      vertex 6.502998e+00 -3.463000e+00 3.390000e-01
    endloop
  endfacet
  facet normal -1.000000e+00 0.000000e+00 0.000000e+00
    outer loop
      vertex 6.502998e+00 -1.109592e+01 4.002000e+00
      vertex 6.502998e+00 -3.463000e+00 3.390000e-01
      vertex 6.502998e+00 -9.863000e+00 2.990000e+00
    endloop
  endfacet
  facet normal 0.000000e+00 -9.951869e-01 9.799559e-02
    outer loop
      vertex 5.500999e+00 1.775300e+01 1.775100e+01
      vertex -9.500999e+00 1.775300e+01 1.775100e+01
      vertex -9.500999e+00 1.741200e+01 1.428800e+01
    endloop
  endfacet
  facet normal 0.000000e+00 -9.951869e-01 9.799559e-02
    outer loop
      vertex 5.500999e+00 1.775300e+01 1.775100e+01
      vertex -9.500999e+00 1.741200e+01 1.428800e+01
      vertex 5.500999e+00 1.741200e+01 1.428800e+01
    endloop
  endfacet
  facet normal 0.000000e+00 0.000000e+00 1.000000e+00
    outer loop
      vertex 5.500999e+00 -1.753144e+01 2.000100e+01
      vertex -9.500999e+00 -1.753144e+01 2.000100e+01
      vertex -9.500999e+00 -1.800000e+01 2.000100e+01
    endloop
  endfacet
  facet normal 2.590505e-01 9.658638e-01 0.000000e+00
    outer loop
      vertex 4.487600e+01 1.949000e+00 1.500100e+01
      vertex 4.487600e+01 1.949000e+00 4.002000e+00
      vertex 4.375000e+01 2.251000e+00 4.002000e+00
    endloop
  endfacet
  facet normal 2.590505e-01 9.658638e-01 0.000000e+00
    outer loop
      vertex 4.487600e+01 1.949000e+00 1.500100e+01
      vertex 4.375000e+01 2.251000e+00 4.002000e+00
      vertex 4.375000e+01 2.251000e+00 1.500100e+01
    endloop
  endfacet
  facet normal 0.000000e+00 0.000000e+00 1.000000e+00
    outer loop
      vertex 5.500999e+00 -1.753144e+01 2.000100e+01
      vertex -9.500999e+00 -1.800000e+01 2.000100e+01
      vertex 5.500999e+00 -1.800000e+01 2.000100e+01
    endloop
  endfacet
  facet normal 0.000000e+00 -9.951869e-01 -9.799559e-02
    outer loop
      vertex -9.500999e+00 1.775300e+01 1.775100e+01
      vertex 5.500999e+00 1.775300e+01 1.775100e+01
      vertex 5.500999e+00 1.753144e+01 2.000100e+01
    endloop
  endfacet
  facet normal 0.000000e+00 -9.951869e-01 -9.799559e-02
    outer loop
      vertex -9.500999e+00 1.775300e+01 1.775100e+01
      vertex 5.500999e+00 1.753144e+01 2.000100e+01
      vertex -9.500999e+00 1.753144e+01 2.000100e+01
    endloop
  endfacet
  facet normal 7.075360e-01 7.066773e-01 0.000000e+00
    outer loop
      vertex 4.487600e+01 1.949000e+00 1.500100e+01
      vertex 4.569900e+01 1.125000e+00 1.500100e+01
      vertex 4.569900e+01 1.125000e+00 4.002000e+00
    endloop
  endfacet
  facet normal 7.075360e-01 7.066773e-01 0.000000e+00
    outer loop
      vertex 4.487600e+01 1.949000e+00 1.500100e+01
      vertex 4.569900e+01 1.125000e+00 4.002000e+00
      vertex 4.487600e+01 1.949000e+00 4.002000e+00
    endloop
  endfacet
  facet normal -1.000000e+00 0.000000e+00 0.000000e+00
    outer loop
      vertex -9.500999e+00 -1.753144e+01 2.000100e+01
      vertex -9.500999e+00 -1.775300e+01 1.775100e+01
      vertex -9.500999e+00 -1.800000e+01 2.000100e+01
    endloop
  endfacet
  facet normal -1.000000e+00 0.000000e+00 0.000000e+00
    outer loop
      vertex 6.502998e+00 3.463000e+00 3.390000e-01
      vertex 6.502998e+00 -1.109592e+01 4.002000e+00
      vertex 6.502998e+00 6.794000e+00 1.349000e+00
    endloop
  endfacet
  facet normal -1.000000e+00 0.000000e+00 0.000000e+00
    outer loop
      vertex 6.502998e+00 9.863000e+00 2.990000e+00
      vertex 6.502998e+00 6.794000e+00 1.349000e+00
      vertex 6.502998e+00 -1.109592e+01 4.002000e+00
    endloop
  endfacet
  facet normal -1.000000e+00 0.000000e+00 0.000000e+00
    outer loop
      vertex 6.502998e+00 1.109592e+01 4.002000e+00
      vertex 6.502998e+00 9.863000e+00 2.990000e+00
      vertex 6.502998e+00 -1.109592e+01 4.002000e+00
    endloop
  endfacet
  facet normal 9.658061e-01 2.592653e-01 0.000000e+00
    outer loop
      vertex 4.569900e+01 1.125000e+00 1.500100e+01
      vertex 4.600100e+01 0.000000e+00 1.500100e+01
      vertex 4.600100e+01 0.000000e+00 4.002000e+00
    endloop
  endfacet
  facet normal 9.658061e-01 2.592653e-01 0.000000e+00
    outer loop
      vertex 4.569900e+01 1.125000e+00 1.500100e+01
      vertex 4.600100e+01 0.000000e+00 4.002000e+00
      vertex 4.569900e+01 1.125000e+00 4.002000e+00
    endloop
  endfacet
  facet normal 1.000000e+00 0.000000e+00 0.000000e+00
    outer loop
      vertex -1.150300e+01 2.031088e-02 0.000000e+00
      vertex -1.150300e+01 -1.109592e+01 4.002000e+00
      vertex -1.150300e+01 -2.031088e-02 0.000000e+00
    endloop
  endfacet
  facet normal 0.000000e+00 1.000000e+00 0.000000e+00
    outer loop
      vertex -3.450000e+01 1.500000e+01 0.000000e+00
      vertex -9.500999e+00 1.500000e+01 1.000000e-03
      vertex 5.500999e+00 1.500000e+01 1.000000e-03
    endloop
  endfacet
  facet normal 0.000000e+00 1.000000e+00 0.000000e+00
    outer loop
      vertex 5.500999e+00 1.500000e+01 4.002000e+00
      vertex 7.450000e+01 1.500000e+01 4.002000e+00
      vertex 5.500999e+00 1.500000e+01 1.000000e-03
    endloop
  endfacet
  facet normal 0.000000e+00 1.000000e+00 0.000000e+00
    outer loop
      vertex -3.450000e+01 1.500000e+01 0.000000e+00
      vertex 5.500999e+00 1.500000e+01 1.000000e-03
      vertex 7.450000e+01 1.500000e+01 0.000000e+00
    endloop
  endfacet
  facet normal 0.000000e+00 0.000000e+00 1.000000e+00
    outer loop
      vertex -9.500999e+00 -1.500000e+01 4.002000e+00
      vertex -9.500999e+00 -1.109592e+01 4.002000e+00
      vertex -1.150300e+01 -1.109592e+01 4.002000e+00
    endloop
  endfacet
  facet normal -1.000000e+00 0.000000e+00 0.000000e+00
    outer loop
      vertex -9.500999e+00 -1.741200e+01 1.428800e+01
      vertex -9.500999e+00 -1.640200e+01 1.095700e+01
      vertex -9.500999e+00 -2.000000e+01 1.419989e-01
    endloop
  endfacet
  facet normal 0.000000e+00 0.000000e+00 1.000000e+00
    outer loop
      vertex 6.502998e+00 -1.109592e+01 4.002000e+00
      vertex 5.500999e+00 -1.109592e+01 4.002000e+00
      vertex 5.500999e+00 -1.500000e+01 4.002000e+00
    endloop
  endfacet
  facet normal 0.000000e+00 1.000000e+00 0.000000e+00
    outer loop
      vertex -3.450000e+01 1.500000e+01 0.000000e+00
      vertex -3.450000e+01 1.500000e+01 4.002000e+00
      vertex -9.500999e+00 1.500000e+01 1.000000e-03
    endloop
  endfacet
  facet normal 1.000000e+00 0.000000e+00 0.000000e+00
    outer loop
      vertex -1.150300e+01 -6.794000e+00 1.349000e+00
      vertex -1.150300e+01 -3.463000e+00 3.390000e-01
      vertex -1.150300e+01 -9.863000e+00 2.990000e+00
    endloop
  endfacet
  facet normal 1.000000e+00 0.000000e+00 0.000000e+00
    outer loop
      vertex -1.150300e+01 -1.109592e+01 4.002000e+00
      vertex -1.150300e+01 -9.863000e+00 2.990000e+00
      vertex -1.150300e+01 -3.463000e+00 3.390000e-01
    endloop
  endfacet
  facet normal 1.000000e+00 0.000000e+00 0.000000e+00
    outer loop
      vertex -1.150300e+01 -3.463000e+00 3.390000e-01
      vertex -1.150300e+01 -2.031088e-02 0.000000e+00
      vertex -1.150300e+01 -1.109592e+01 4.002000e+00
    endloop
  endfacet
  facet normal 1.000000e+00 0.000000e+00 0.000000e+00
    outer loop
      vertex -1.150300e+01 3.463000e+00 3.390000e-01
      vertex -1.150300e+01 6.794000e+00 1.349000e+00
      vertex -1.150300e+01 -1.109592e+01 4.002000e+00
    endloop
  endfacet
  facet normal 1.000000e+00 0.000000e+00 0.000000e+00
    outer loop
      vertex -1.150300e+01 2.031088e-02 0.000000e+00
      vertex -1.150300e+01 3.463000e+00 3.390000e-01
      vertex -1.150300e+01 -1.109592e+01 4.002000e+00
    endloop
  endfacet
  facet normal 0.000000e+00 1.000000e+00 0.000000e+00
    outer loop
      vertex 7.450000e+01 1.500000e+01 0.000000e+00
      vertex 5.500999e+00 1.500000e+01 1.000000e-03
      vertex 7.450000e+01 1.500000e+01 4.002000e+00
    endloop
  endfacet
  facet normal 1.000000e+00 0.000000e+00 0.000000e+00
    outer loop
      vertex -1.150300e+01 9.863000e+00 2.990000e+00
      vertex -1.150300e+01 -1.109592e+01 4.002000e+00
      vertex -1.150300e+01 6.794000e+00 1.349000e+00
    endloop
  endfacet
  facet normal 1.000000e+00 0.000000e+00 0.000000e+00
    outer loop
      vertex -1.150300e+01 1.109592e+01 4.002000e+00
      vertex -1.150300e+01 -1.109592e+01 4.002000e+00
      vertex -1.150300e+01 9.863000e+00 2.990000e+00
    endloop
  endfacet
  facet normal 0.000000e+00 -1.000000e+00 0.000000e+00
    outer loop
      vertex -9.500999e+00 1.800000e+01 2.600100e+01
      vertex -9.500999e+00 1.800000e+01 2.000100e+01
      vertex 5.500999e+00 1.800000e+01 2.000100e+01
    endloop
  endfacet
  facet normal 0.000000e+00 -1.000000e+00 0.000000e+00
    outer loop
      vertex -9.500999e+00 1.800000e+01 2.600100e+01
      vertex 5.500999e+00 1.800000e+01 2.000100e+01
      vertex 5.500999e+00 1.800000e+01 2.600100e+01
    endloop
  endfacet
  facet normal 0.000000e+00 1.000000e+00 0.000000e+00
    outer loop
      vertex -9.500999e+00 3.000000e+01 2.000000e+01
      vertex -9.500999e+00 3.000000e+01 2.600100e+01
      vertex 5.500999e+00 3.000000e+01 2.600100e+01
    endloop
  endfacet
  facet normal 0.000000e+00 1.000000e+00 0.000000e+00
    outer loop
      vertex -9.500999e+00 3.000000e+01 2.000000e+01
      vertex 5.500999e+00 3.000000e+01 2.600100e+01
      vertex 5.500999e+00 3.000000e+01 2.000000e+01
    endloop
  endfacet
  facet normal -1.000000e+00 0.000000e+00 0.000000e+00
    outer loop
      vertex -9.500999e+00 -1.741200e+01 1.428800e+01
      vertex -9.500999e+00 -2.000000e+01 1.419989e-01
      vertex -9.500999e+00 -1.775300e+01 1.775100e+01
    endloop
  endfacet
  facet normal -1.000000e+00 0.000000e+00 0.000000e+00
    outer loop
      vertex -9.500999e+00 -1.476100e+01 7.888000e+00
      vertex -9.500999e+00 -1.500000e+01 4.002000e+00
      vertex -9.500999e+00 -2.000000e+01 1.419989e-01
    endloop
  endfacet
  facet normal -1.000000e+00 0.000000e+00 0.000000e+00
    outer loop
      vertex -9.500999e+00 -1.500000e+01 4.002000e+00
      vertex -9.500999e+00 -1.500000e+01 1.000000e-03
      vertex -9.500999e+00 -2.000000e+01 1.419989e-01
    endloop
  endfacet
  facet normal 0.000000e+00 1.000000e+00 0.000000e+00
    outer loop
      vertex -9.500999e+00 1.500000e+01 4.002000e+00
      vertex -9.500999e+00 1.500000e+01 1.000000e-03
      vertex -3.450000e+01 1.500000e+01 4.002000e+00
    endloop
  endfacet
  facet normal 0.000000e+00 9.951869e-01 -9.799559e-02
    outer loop
      vertex 5.500999e+00 -1.753144e+01 2.000100e+01
      vertex 5.500999e+00 -1.775300e+01 1.775100e+01
      vertex -9.500999e+00 -1.775300e+01 1.775100e+01
    endloop
  endfacet
  facet normal 0.000000e+00 9.951869e-01 -9.799559e-02
    outer loop
      vertex 5.500999e+00 -1.753144e+01 2.000100e+01
      vertex -9.500999e+00 -1.775300e+01 1.775100e+01
      vertex -9.500999e+00 -1.753144e+01 2.000100e+01
    endloop
  endfacet
  facet normal 1.000000e+00 0.000000e+00 0.000000e+00
    outer loop
      vertex 5.500999e+00 2.000100e+01 1.439848e-01
      vertex 5.500999e+00 2.999950e+01 2.000000e+01
      vertex 5.500999e+00 2.999950e+01 2.000000e+01
    endloop
  endfacet
  facet normal 1.000000e+00 0.000000e+00 0.000000e+00
    outer loop
      vertex 5.500999e+00 2.000100e+01 1.439848e-01
      vertex 5.500999e+00 2.999950e+01 2.000000e+01
      vertex 5.500999e+00 2.000100e+01 1.439849e-01
    endloop
  endfacet
  facet normal 0.000000e+00 0.000000e+00 -1.000000e+00
    outer loop
      vertex -1.150300e+01 2.031088e-02 0.000000e+00
      vertex -3.450000e+01 1.500000e+01 0.000000e+00
      vertex 6.502998e+00 2.031088e-02 0.000000e+00
    endloop
  endfacet
  facet normal 0.000000e+00 0.000000e+00 -1.000000e+00
    outer loop
      vertex 7.450000e+01 1.500000e+01 0.000000e+00
      vertex 6.502998e+00 2.031088e-02 0.000000e+00
      vertex -3.450000e+01 1.500000e+01 0.000000e+00
    endloop
  endfacet
  facet normal 0.000000e+00 9.951869e-01 9.799559e-02
    outer loop
      vertex -9.500999e+00 -1.775300e+01 1.775100e+01
      vertex 5.500999e+00 -1.775300e+01 1.775100e+01
      vertex 5.500999e+00 -1.741200e+01 1.428800e+01
    endloop
  endfacet
  facet normal 0.000000e+00 9.951869e-01 9.799559e-02
    outer loop
      vertex -9.500999e+00 -1.775300e+01 1.775100e+01
      vertex 5.500999e+00 -1.741200e+01 1.428800e+01
      vertex -9.500999e+00 -1.741200e+01 1.428800e+01
    endloop
  endfacet
  facet normal 1.000000e+00 0.000000e+00 0.000000e+00
    outer loop
      vertex 5.500999e+00 2.000100e+01 1.439849e-01
      vertex 5.500999e+00 2.999950e+01 2.000000e+01
      vertex 5.500999e+00 2.000100e+01 1.439988e-01
    endloop
  endfacet
  facet normal 0.000000e+00 0.000000e+00 -1.000000e+00
    outer loop
      vertex 7.450000e+01 -1.500000e+01 0.000000e+00
      vertex -3.450000e+01 -1.500000e+01 0.000000e+00
      vertex 6.502998e+00 -2.031088e-02 0.000000e+00
    endloop
  endfacet
  facet normal 0.000000e+00 9.569761e-01 2.901669e-01
    outer loop
      vertex -9.500999e+00 -1.741200e+01 1.428800e+01
      vertex 5.500999e+00 -1.741200e+01 1.428800e+01
      vertex 5.500999e+00 -1.640200e+01 1.095700e+01
    endloop
  endfacet
  facet normal 0.000000e+00 9.569761e-01 2.901669e-01
    outer loop
      vertex -9.500999e+00 -1.741200e+01 1.428800e+01
      vertex 5.500999e+00 -1.640200e+01 1.095700e+01
      vertex -9.500999e+00 -1.640200e+01 1.095700e+01
    endloop
  endfacet
  facet normal -4.227038e-07 8.931553e-01 -4.497484e-01
    outer loop
      vertex 5.500999e+00 2.999950e+01 2.000000e+01
      vertex 5.500999e+00 2.000100e+01 1.439848e-01
      vertex 5.500248e+00 2.999950e+01 2.000000e+01
    endloop
  endfacet
  facet normal -4.227038e-07 8.931553e-01 -4.497484e-01
    outer loop
      vertex 5.500999e+00 2.000100e+01 1.439848e-01
      vertex 5.393757e+00 2.000100e+01 1.439849e-01
      vertex 5.500248e+00 2.999950e+01 2.000000e+01
    endloop
  endfacet
  facet normal -4.227038e-07 8.931553e-01 -4.497484e-01
    outer loop
      vertex -2.000000e+00 2.496500e+01 1.000200e+01
      vertex 5.500248e+00 2.999950e+01 2.000000e+01
      vertex 5.393757e+00 2.000100e+01 1.439849e-01
    endloop
  endfacet
  facet normal 0.000000e+00 0.000000e+00 -1.000000e+00
    outer loop
      vertex 7.450000e+01 1.500000e+01 0.000000e+00
      vertex 7.450000e+01 -1.500000e+01 0.000000e+00
      vertex 6.502998e+00 -2.031088e-02 0.000000e+00
    endloop
  endfacet
  facet normal 0.000000e+00 0.000000e+00 -1.000000e+00
    outer loop
      vertex 7.450000e+01 1.500000e+01 0.000000e+00
      vertex 6.502998e+00 -2.031088e-02 0.000000e+00
      vertex 6.502998e+00 2.031088e-02 0.000000e+00
    endloop
  endfacet
  facet normal 0.000000e+00 8.931555e-01 -4.497481e-01
    outer loop
      vertex -2.000000e+00 2.496500e+01 1.000200e+01
      vertex 5.393757e+00 2.000100e+01 1.439849e-01
      vertex -9.393757e+00 2.000100e+01 1.439849e-01
    endloop
  endfacet
  facet normal 0.000000e+00 8.931552e-01 -4.497486e-01
    outer loop
      vertex 5.500248e+00 2.999950e+01 2.000000e+01
      vertex -2.000000e+00 2.496500e+01 1.000200e+01
      vertex -9.500248e+00 2.999950e+01 2.000000e+01
    endloop
  endfacet
  facet normal 0.000000e+00 -1.000000e+00 0.000000e+00
    outer loop
      vertex -9.500999e+00 -1.500000e+01 1.000000e-03
      vertex -3.450000e+01 -1.500000e+01 0.000000e+00
      vertex 5.500999e+00 -1.500000e+01 1.000000e-03
    endloop
  endfacet
  facet normal 0.000000e+00 0.000000e+00 -1.000000e+00
    outer loop
      vertex -1.150300e+01 -2.031088e-02 0.000000e+00
      vertex -3.450000e+01 -1.500000e+01 0.000000e+00
      vertex -1.150300e+01 2.031088e-02 0.000000e+00
    endloop
  endfacet
  facet normal 0.000000e+00 0.000000e+00 -1.000000e+00
    outer loop
      vertex -1.150300e+01 -2.031088e-02 0.000000e+00
      vertex 6.502998e+00 -2.031088e-02 0.000000e+00
      vertex -3.450000e+01 -1.500000e+01 0.000000e+00
    endloop
  endfacet
  facet normal 0.000000e+00 0.000000e+00 -1.000000e+00
    outer loop
      vertex -3.450000e+01 -1.500000e+01 0.000000e+00
      vertex -3.450000e+01 1.500000e+01 0.000000e+00
      vertex -1.150300e+01 2.031088e-02 0.000000e+00
    endloop
  endfacet
  facet normal 1.000000e+00 0.000000e+00 0.000000e+00
    outer loop
      vertex 5.500999e+00 2.999950e+01 2.000000e+01
      vertex 5.500999e+00 2.000100e+01 2.000000e+01
      vertex 5.500999e+00 2.000100e+01 1.439989e-01
    endloop
  endfacet
  facet normal 1.000000e+00 0.000000e+00 0.000000e+00
    outer loop
      vertex 5.500999e+00 2.999950e+01 2.000000e+01
      vertex 5.500999e+00 2.000100e+01 1.439989e-01
      vertex 5.500999e+00 2.000100e+01 1.439988e-01
    endloop
  endfacet
  facet normal 0.000000e+00 0.000000e+00 1.000000e+00
    outer loop
      vertex -9.500999e+00 1.500000e+01 4.002000e+00
      vertex -1.150300e+01 1.109592e+01 4.002000e+00
      vertex -9.500999e+00 1.109592e+01 4.002000e+00
    endloop
  endfacet
  facet normal 1.000000e+00 0.000000e+00 0.000000e+00
    outer loop
      vertex 7.450000e+01 1.500000e+01 0.000000e+00
      vertex 7.450000e+01 -1.500000e+01 4.002000e+00
      vertex 7.450000e+01 -1.500000e+01 0.000000e+00
    endloop
  endfacet
  facet normal 1.000000e+00 0.000000e+00 0.000000e+00
    outer loop
      vertex 7.450000e+01 1.500000e+01 4.002000e+00
      vertex 7.450000e+01 -1.500000e+01 4.002000e+00
      vertex 7.450000e+01 1.500000e+01 0.000000e+00
    endloop
  endfacet
  facet normal 4.227038e-07 8.931553e-01 -4.497484e-01
    outer loop
      vertex -9.500248e+00 2.999950e+01 2.000000e+01
      vertex -2.000000e+00 2.496500e+01 1.000200e+01
      vertex -9.393757e+00 2.000100e+01 1.439849e-01
    endloop
  endfacet
  facet normal 4.227038e-07 8.931553e-01 -4.497484e-01
    outer loop
      vertex -9.500248e+00 2.999950e+01 2.000000e+01
      vertex -9.393757e+00 2.000100e+01 1.439849e-01
      vertex -9.500999e+00 2.000100e+01 1.439848e-01
    endloop
  endfacet
  facet normal 4.227038e-07 8.931553e-01 -4.497484e-01
    outer loop
      vertex -9.500248e+00 2.999950e+01 2.000000e+01
      vertex -9.500999e+00 2.000100e+01 1.439848e-01
      vertex -9.500999e+00 2.999950e+01 2.000000e+01
    endloop
  endfacet
  facet normal 1.000000e+00 0.000000e+00 0.000000e+00
    outer loop
      vertex 5.500999e+00 -1.640200e+01 1.095700e+01
      vertex 5.500999e+00 -2.000000e+01 1.419989e-01
      vertex 5.500999e+00 -1.476100e+01 7.888000e+00
    endloop
  endfacet
  facet normal -1.000000e+00 0.000000e+00 0.000000e+00
    outer loop
      vertex -9.500999e+00 2.000100e+01 1.439848e-01
      vertex -9.500999e+00 2.000100e+01 2.000000e+01
      vertex -9.500999e+00 2.999950e+01 2.000000e+01
    endloop
  endfacet
  facet normal 0.000000e+00 -1.000000e+00 0.000000e+00
    outer loop
      vertex -9.500999e+00 -1.500000e+01 4.002000e+00
      vertex -3.450000e+01 -1.500000e+01 4.002000e+00
      vertex -9.500999e+00 -1.500000e+01 1.000000e-03
    endloop
  endfacet
  facet normal 1.000000e+00 0.000000e+00 0.000000e+00
    outer loop
      vertex 5.500999e+00 -1.255300e+01 5.198000e+00
      vertex 5.500999e+00 -1.476100e+01 7.888000e+00
      vertex 5.500999e+00 -1.500000e+01 4.002000e+00
    endloop
  endfacet
  facet normal 0.000000e+00 1.000000e+00 0.000000e+00
    outer loop
      vertex -9.500999e+00 2.000100e+01 1.000000e-03
      vertex -9.393757e+00 2.000100e+01 1.439849e-01
      vertex 5.500999e+00 2.000100e+01 1.000000e-03
    endloop
  endfacet
  facet normal 0.000000e+00 1.000000e+00 0.000000e+00
    outer loop
      vertex -9.500999e+00 2.000100e+01 1.439848e-01
      vertex -9.393757e+00 2.000100e+01 1.439849e-01
      vertex -9.500999e+00 2.000100e+01 1.000000e-03
    endloop
  endfacet
  facet normal 0.000000e+00 1.000000e+00 0.000000e+00
    outer loop
      vertex -9.393757e+00 2.000100e+01 1.439849e-01
      vertex 5.393757e+00 2.000100e+01 1.439849e-01
      vertex 5.500999e+00 2.000100e+01 1.000000e-03
    endloop
  endfacet
  facet normal 0.000000e+00 1.000000e+00 0.000000e+00
    outer loop
      vertex 5.500999e+00 2.000100e+01 1.439848e-01
      vertex 5.500999e+00 2.000100e+01 1.000000e-03
      vertex 5.393757e+00 2.000100e+01 1.439849e-01
    endloop
  endfacet
  facet normal 1.000000e+00 0.000000e+00 0.000000e+00
    outer loop
      vertex 5.500999e+00 -1.109592e+01 4.002000e+00
      vertex 5.500999e+00 -1.255300e+01 5.198000e+00
      vertex 5.500999e+00 -1.500000e+01 4.002000e+00
    endloop
  endfacet
  facet normal 0.000000e+00 0.000000e+00 1.000000e+00
    outer loop
      vertex 5.500999e+00 1.109592e+01 4.002000e+00
      vertex 6.502998e+00 1.109592e+01 4.002000e+00
      vertex 5.500999e+00 1.500000e+01 4.002000e+00
    endloop
  endfacet
  facet normal 0.000000e+00 0.000000e+00 1.000000e+00
    outer loop
      vertex 6.502998e+00 1.109592e+01 4.002000e+00
      vertex 6.502998e+00 -1.109592e+01 4.002000e+00
      vertex 4.150000e+01 0.000000e+00 4.002000e+00
    endloop
  endfacet
  facet normal 0.000000e+00 0.000000e+00 1.000000e+00
    outer loop
      vertex 4.180100e+01 -1.125000e+00 4.002000e+00
      vertex 4.150000e+01 0.000000e+00 4.002000e+00
      vertex 6.502998e+00 -1.109592e+01 4.002000e+00
    endloop
  endfacet
  facet normal 0.000000e+00 0.000000e+00 1.000000e+00
    outer loop
      vertex 7.450000e+01 -1.500000e+01 4.002000e+00
      vertex 4.375000e+01 -2.251000e+00 4.002000e+00
      vertex 5.500999e+00 -1.500000e+01 4.002000e+00
    endloop
  endfacet
  facet normal 0.000000e+00 0.000000e+00 1.000000e+00
    outer loop
      vertex 6.502998e+00 -1.109592e+01 4.002000e+00
      vertex 5.500999e+00 -1.500000e+01 4.002000e+00
      vertex 4.262500e+01 -1.949000e+00 4.002000e+00
    endloop
  endfacet
  facet normal 0.000000e+00 0.000000e+00 1.000000e+00
    outer loop
      vertex 4.180100e+01 -1.125000e+00 4.002000e+00
      vertex 6.502998e+00 -1.109592e+01 4.002000e+00
      vertex 4.262500e+01 -1.949000e+00 4.002000e+00
    endloop
  endfacet
  facet normal 0.000000e+00 0.000000e+00 1.000000e+00
    outer loop
      vertex 4.150000e+01 0.000000e+00 4.002000e+00
      vertex 4.180100e+01 1.125000e+00 4.002000e+00
      vertex 6.502998e+00 1.109592e+01 4.002000e+00
    endloop
  endfacet
  facet normal 0.000000e+00 0.000000e+00 1.000000e+00
    outer loop
      vertex 4.180100e+01 1.125000e+00 4.002000e+00
      vertex 4.262500e+01 1.949000e+00 4.002000e+00
      vertex 6.502998e+00 1.109592e+01 4.002000e+00
    endloop
  endfacet
  facet normal 0.000000e+00 0.000000e+00 1.000000e+00
    outer loop
      vertex 5.500999e+00 1.500000e+01 4.002000e+00
      vertex 6.502998e+00 1.109592e+01 4.002000e+00
      vertex 4.262500e+01 1.949000e+00 4.002000e+00
    endloop
  endfacet
  facet normal 0.000000e+00 -1.000000e+00 0.000000e+00
    outer loop
      vertex 5.500999e+00 -1.500000e+01 4.002000e+00
      vertex 5.500999e+00 -1.500000e+01 1.000000e-03
      vertex 7.450000e+01 -1.500000e+01 4.002000e+00
    endloop
  endfacet
  facet normal 0.000000e+00 -1.000000e+00 0.000000e+00
    outer loop
      vertex 7.450000e+01 -1.500000e+01 4.002000e+00
      vertex 5.500999e+00 -1.500000e+01 1.000000e-03
      vertex 7.450000e+01 -1.500000e+01 0.000000e+00
    endloop
  endfacet
  facet normal 1.000000e+00 0.000000e+00 0.000000e+00
    outer loop
      vertex 5.500999e+00 2.000100e+01 1.439848e-01
      vertex 5.500999e+00 2.000100e+01 1.439849e-01
      vertex 5.500999e+00 1.741200e+01 1.428800e+01
    endloop
  endfacet
  facet normal 1.000000e+00 0.000000e+00 0.000000e+00
    outer loop
      vertex 5.500999e+00 2.000100e+01 1.439849e-01
      vertex 5.500999e+00 2.000100e+01 1.439988e-01
      vertex 5.500999e+00 1.741200e+01 1.428800e+01
    endloop
  endfacet
  facet normal 1.000000e+00 0.000000e+00 0.000000e+00
    outer loop
      vertex 5.500999e+00 2.000100e+01 2.000000e+01
      vertex 5.500999e+00 1.741200e+01 1.428800e+01
      vertex 5.500999e+00 2.000100e+01 1.439988e-01
    endloop
  endfacet
  facet normal 1.000000e+00 0.000000e+00 0.000000e+00
    outer loop
      vertex 5.500999e+00 2.000100e+01 2.000000e+01
      vertex 5.500999e+00 2.000100e+01 1.439988e-01
      vertex 5.500999e+00 2.000100e+01 1.439989e-01
    endloop
  endfacet
  facet normal 0.000000e+00 -1.000000e+00 0.000000e+00
    outer loop
      vertex 7.450000e+01 -1.500000e+01 0.000000e+00
      vertex 5.500999e+00 -1.500000e+01 1.000000e-03
      vertex -3.450000e+01 -1.500000e+01 0.000000e+00
    endloop
  endfacet
  facet normal 0.000000e+00 0.000000e+00 1.000000e+00
    outer loop
      vertex 4.569900e+01 -1.125000e+00 4.002000e+00
      vertex 4.487600e+01 -1.949000e+00 4.002000e+00
      vertex 7.450000e+01 -1.500000e+01 4.002000e+00
    endloop
  endfacet
  facet normal 0.000000e+00 0.000000e+00 1.000000e+00
    outer loop
      vertex 4.262500e+01 -1.949000e+00 4.002000e+00
      vertex 5.500999e+00 -1.500000e+01 4.002000e+00
      vertex 4.375000e+01 -2.251000e+00 4.002000e+00
    endloop
  endfacet
  facet normal 1.000000e+00 0.000000e+00 0.000000e+00
    outer loop
      vertex 5.500999e+00 1.109592e+01 4.002000e+00
      vertex 5.500999e+00 1.500000e+01 4.002000e+00
      vertex 5.500999e+00 1.255300e+01 5.198000e+00
    endloop
  endfacet
  facet normal -1.000000e+00 0.000000e+00 0.000000e+00
    outer loop
      vertex -9.500999e+00 2.000100e+01 1.000000e-03
      vertex -9.500999e+00 1.500000e+01 1.000000e-03
      vertex -9.500999e+00 2.000100e+01 1.439848e-01
    endloop
  endfacet
  facet normal -1.000000e+00 0.000000e+00 0.000000e+00
    outer loop
      vertex -9.500999e+00 1.500000e+01 1.000000e-03
      vertex -9.500999e+00 1.500000e+01 4.002000e+00
      vertex -9.500999e+00 2.000100e+01 1.439848e-01
    endloop
  endfacet
  facet normal 0.000000e+00 -1.000000e+00 0.000000e+00
    outer loop
      vertex -3.450000e+01 -1.500000e+01 0.000000e+00
      vertex -9.500999e+00 -1.500000e+01 1.000000e-03
      vertex -3.450000e+01 -1.500000e+01 4.002000e+00
    endloop
  endfacet
  facet normal 0.000000e+00 0.000000e+00 -1.000000e+00
    outer loop
      vertex 5.500999e+00 3.000000e+01 2.000000e+01
      vertex 5.500999e+00 2.999950e+01 2.000000e+01
      vertex 5.500248e+00 2.999950e+01 2.000000e+01
    endloop
  endfacet
  facet normal 0.000000e+00 0.000000e+00 -1.000000e+00
    outer loop
      vertex 5.500999e+00 3.000000e+01 2.000000e+01
      vertex 5.500248e+00 2.999950e+01 2.000000e+01
      vertex -9.500248e+00 2.999950e+01 2.000000e+01
    endloop
  endfacet
  facet normal 0.000000e+00 0.000000e+00 -1.000000e+00
    outer loop
      vertex -9.500999e+00 2.999950e+01 2.000000e+01
      vertex -9.500999e+00 3.000000e+01 2.000000e+01
      vertex -9.500248e+00 2.999950e+01 2.000000e+01
    endloop
  endfacet
  facet normal 0.000000e+00 0.000000e+00 -1.000000e+00
    outer loop
      vertex 5.500999e+00 3.000000e+01 2.000000e+01
      vertex -9.500248e+00 2.999950e+01 2.000000e+01
      vertex -9.500999e+00 3.000000e+01 2.000000e+01
    endloop
  endfacet
  facet normal 0.000000e+00 0.000000e+00 -1.000000e+00
    outer loop
      vertex -9.500999e+00 1.500000e+01 1.000000e-03
      vertex 5.500999e+00 2.000100e+01 1.000000e-03
      vertex 5.500999e+00 1.500000e+01 1.000000e-03
    endloop
  endfacet
  facet normal 0.000000e+00 0.000000e+00 1.000000e+00
    outer loop
      vertex 4.569900e+01 1.125000e+00 4.002000e+00
      vertex 4.600100e+01 0.000000e+00 4.002000e+00
      vertex 7.450000e+01 1.500000e+01 4.002000e+00
    endloop
  endfacet
  facet normal 0.000000e+00 0.000000e+00 1.000000e+00
    outer loop
      vertex 7.450000e+01 -1.500000e+01 4.002000e+00
      vertex 7.450000e+01 1.500000e+01 4.002000e+00
      vertex 4.600100e+01 0.000000e+00 4.002000e+00
    endloop
  endfacet
  facet normal 0.000000e+00 0.000000e+00 1.000000e+00
    outer loop
      vertex 4.569900e+01 -1.125000e+00 4.002000e+00
      vertex 7.450000e+01 -1.500000e+01 4.002000e+00
      vertex 4.600100e+01 0.000000e+00 4.002000e+00
    endloop
  endfacet
  facet normal 0.000000e+00 0.000000e+00 1.000000e+00
    outer loop
      vertex 4.487600e+01 1.949000e+00 4.002000e+00
      vertex 4.569900e+01 1.125000e+00 4.002000e+00
      vertex 7.450000e+01 1.500000e+01 4.002000e+00
    endloop
  endfacet
  facet normal 0.000000e+00 0.000000e+00 -1.000000e+00
    outer loop
      vertex -9.500999e+00 1.500000e+01 1.000000e-03
      vertex -9.500999e+00 2.000100e+01 1.000000e-03
      vertex 5.500999e+00 2.000100e+01 1.000000e-03
    endloop
  endfacet
  facet normal 1.000000e+00 0.000000e+00 0.000000e+00
    outer loop
      vertex 5.500999e+00 1.476100e+01 7.888000e+00
      vertex 5.500999e+00 1.255300e+01 5.198000e+00
      vertex 5.500999e+00 1.500000e+01 4.002000e+00
    endloop
  endfacet
  facet normal 1.000000e+00 0.000000e+00 0.000000e+00
    outer loop
      vertex 5.500999e+00 1.800000e+01 2.000100e+01
      vertex 5.500999e+00 2.000100e+01 2.000000e+01
      vertex 5.500999e+00 1.800000e+01 2.600100e+01
    endloop
  endfacet
  facet normal 1.000000e+00 0.000000e+00 0.000000e+00
    outer loop
      vertex 5.500999e+00 1.800000e+01 2.000100e+01
      vertex 5.500999e+00 1.775300e+01 1.775100e+01
      vertex 5.500999e+00 2.000100e+01 2.000000e+01
    endloop
  endfacet
  facet normal 1.000000e+00 0.000000e+00 0.000000e+00
    outer loop
      vertex 5.500999e+00 3.000000e+01 2.600100e+01
      vertex 5.500999e+00 1.800000e+01 2.600100e+01
      vertex 5.500999e+00 2.000100e+01 2.000000e+01
    endloop
  endfacet
  facet normal 1.000000e+00 0.000000e+00 0.000000e+00
    outer loop
      vertex 5.500999e+00 3.000000e+01 2.600100e+01
      vertex 5.500999e+00 2.000100e+01 2.000000e+01
      vertex 5.500999e+00 2.999950e+01 2.000000e+01
    endloop
  endfacet
  facet normal 1.000000e+00 0.000000e+00 0.000000e+00
    outer loop
      vertex 5.500999e+00 3.000000e+01 2.600100e+01
      vertex 5.500999e+00 2.999950e+01 2.000000e+01
      vertex 5.500999e+00 2.999950e+01 2.000000e+01
    endloop
  endfacet
  facet normal 1.000000e+00 0.000000e+00 0.000000e+00
    outer loop
      vertex 5.500999e+00 3.000000e+01 2.600100e+01
      vertex 5.500999e+00 2.999950e+01 2.000000e+01
      vertex 5.500999e+00 3.000000e+01 2.000000e+01
    endloop
  endfacet
  facet normal -1.000000e+00 0.000000e+00 0.000000e+00
    outer loop
      vertex -9.500999e+00 -1.476100e+01 7.888000e+00
      vertex -9.500999e+00 -2.000000e+01 1.419989e-01
      vertex -9.500999e+00 -1.640200e+01 1.095700e+01
    endloop
  endfacet
  facet normal 0.000000e+00 0.000000e+00 1.000000e+00
    outer loop
      vertex 5.500999e+00 1.500000e+01 4.002000e+00
      vertex 4.262500e+01 1.949000e+00 4.002000e+00
      vertex 4.375000e+01 2.251000e+00 4.002000e+00
    endloop
  endfacet
  facet normal 0.000000e+00 0.000000e+00 1.000000e+00
    outer loop
      vertex 5.500999e+00 1.500000e+01 4.002000e+00
      vertex 4.375000e+01 2.251000e+00 4.002000e+00
      vertex 7.450000e+01 1.500000e+01 4.002000e+00
    endloop
  endfacet
  facet normal 0.000000e+00 0.000000e+00 1.000000e+00
    outer loop
      vertex -9.500999e+00 3.000000e+01 2.600100e+01
      vertex -9.500999e+00 1.800000e+01 2.600100e+01
      vertex 5.500999e+00 1.800000e+01 2.600100e+01
    endloop
  endfacet
  facet normal 0.000000e+00 0.000000e+00 1.000000e+00
    outer loop
      vertex -9.500999e+00 3.000000e+01 2.600100e+01
      vertex 5.500999e+00 1.800000e+01 2.600100e+01
      vertex 5.500999e+00 3.000000e+01 2.600100e+01
    endloop
  endfacet
  facet normal 1.000000e+00 0.000000e+00 0.000000e+00
    outer loop
      vertex 5.500999e+00 1.500000e+01 4.002000e+00
      vertex 5.500999e+00 1.500000e+01 1.000000e-03
      vertex 5.500999e+00 2.000100e+01 1.439848e-01
    endloop
  endfacet
  facet normal 1.000000e+00 0.000000e+00 0.000000e+00
    outer loop
      vertex 5.500999e+00 1.476100e+01 7.888000e+00
      vertex 5.500999e+00 1.500000e+01 4.002000e+00
      vertex 5.500999e+00 2.000100e+01 1.439848e-01
    endloop
  endfacet
  facet normal 1.000000e+00 0.000000e+00 0.000000e+00
    outer loop
      vertex 5.500999e+00 2.000100e+01 1.000000e-03
      vertex 5.500999e+00 2.000100e+01 1.439848e-01
      vertex 5.500999e+00 1.500000e+01 1.000000e-03
    endloop
  endfacet
  facet normal 1.000000e+00 0.000000e+00 0.000000e+00
    outer loop
      vertex 5.500999e+00 1.640200e+01 1.095700e+01
      vertex 5.500999e+00 1.476100e+01 7.888000e+00
      vertex 5.500999e+00 2.000100e+01 1.439848e-01
    endloop
  endfacet
  facet normal -1.000000e+00 0.000000e+00 0.000000e+00
    outer loop
      vertex -9.500999e+00 -1.255300e+01 5.198000e+00
      vertex -9.500999e+00 -1.500000e+01 4.002000e+00
      vertex -9.500999e+00 -1.476100e+01 7.888000e+00
    endloop
  endfacet
  facet normal 1.000000e+00 0.000000e+00 0.000000e+00
    outer loop
      vertex 5.500999e+00 1.753144e+01 2.000100e+01
      vertex 5.500999e+00 1.775300e+01 1.775100e+01
      vertex 5.500999e+00 1.800000e+01 2.000100e+01
    endloop
  endfacet
  facet normal -1.000000e+00 0.000000e+00 0.000000e+00
    outer loop
      vertex -9.500999e+00 3.000000e+01 2.600100e+01
      vertex -9.500999e+00 3.000000e+01 2.000000e+01
      vertex -9.500999e+00 2.999950e+01 2.000000e+01
    endloop
  endfacet
  facet normal -1.000000e+00 0.000000e+00 0.000000e+00
    outer loop
      vertex -9.500999e+00 3.000000e+01 2.600100e+01
      vertex -9.500999e+00 2.999950e+01 2.000000e+01
      vertex -9.500999e+00 2.000100e+01 2.000000e+01
    endloop
  endfacet
  facet normal -1.000000e+00 0.000000e+00 0.000000e+00
    outer loop
      vertex -9.500999e+00 1.800000e+01 2.000100e+01
      vertex -9.500999e+00 1.800000e+01 2.600100e+01
      vertex -9.500999e+00 2.000100e+01 2.000000e+01
    endloop
  endfacet
  facet normal -1.000000e+00 0.000000e+00 0.000000e+00
    outer loop
      vertex -9.500999e+00 3.000000e+01 2.600100e+01
      vertex -9.500999e+00 2.000100e+01 2.000000e+01
      vertex -9.500999e+00 1.800000e+01 2.600100e+01
    endloop
  endfacet
  facet normal 0.000000e+00 1.000000e+00 0.000000e+00
    outer loop
      vertex -9.500999e+00 -1.800000e+01 2.000100e+01
      vertex -9.500999e+00 -1.800000e+01 2.600100e+01
      vertex 5.500999e+00 -1.800000e+01 2.600100e+01
    endloop
  endfacet
  facet normal 0.000000e+00 1.000000e+00 0.000000e+00
    outer loop
      vertex -9.500999e+00 -1.800000e+01 2.000100e+01
      vertex 5.500999e+00 -1.800000e+01 2.600100e+01
      vertex 5.500999e+00 -1.800000e+01 2.000100e+01
    endloop
  endfacet
  facet normal -1.000000e+00 0.000000e+00 0.000000e+00
    outer loop
      vertex -9.500999e+00 -1.109592e+01 4.002000e+00
      vertex -9.500999e+00 -1.500000e+01 4.002000e+00
      vertex -9.500999e+00 -1.255300e+01 5.198000e+00
    endloop
  endfacet
  facet normal -1.000000e+00 0.000000e+00 0.000000e+00
    outer loop
      vertex -9.500999e+00 -2.000000e+01 1.419989e-01
      vertex -9.500999e+00 -2.999950e+01 2.000000e+01
      vertex -9.500999e+00 -2.999950e+01 2.000000e+01
    endloop
  endfacet
  facet normal -1.000000e+00 0.000000e+00 0.000000e+00
    outer loop
      vertex -9.500999e+00 -2.000000e+01 1.419989e-01
      vertex -9.500999e+00 -2.999950e+01 2.000000e+01
      vertex -9.500999e+00 -2.000000e+01 1.419990e-01
    endloop
  endfacet
  facet normal 0.000000e+00 0.000000e+00 1.000000e+00
    outer loop
      vertex 4.487600e+01 -1.949000e+00 4.002000e+00
      vertex 4.375000e+01 -2.251000e+00 4.002000e+00
      vertex 7.450000e+01 -1.500000e+01 4.002000e+00
    endloop
  endfacet
  facet normal -1.000000e+00 0.000000e+00 0.000000e+00
    outer loop
      vertex -9.500999e+00 -2.000000e+01 1.419990e-01
      vertex -9.500999e+00 -2.999950e+01 2.000000e+01
      vertex -9.500999e+00 -2.000000e+01 1.420129e-01
    endloop
  endfacet
  facet normal 4.227038e-07 -8.931553e-01 -4.497484e-01
    outer loop
      vertex -9.500999e+00 -2.999950e+01 2.000000e+01
      vertex -9.500999e+00 -2.000000e+01 1.419989e-01
      vertex -9.500248e+00 -2.999950e+01 2.000000e+01
    endloop
  endfacet
  facet normal 4.227038e-07 -8.931553e-01 -4.497484e-01
    outer loop
      vertex -9.500999e+00 -2.000000e+01 1.419989e-01
      vertex -9.395248e+00 -2.000000e+01 1.419990e-01
      vertex -9.500248e+00 -2.999950e+01 2.000000e+01
    endloop
  endfacet
  facet normal 4.227038e-07 -8.931553e-01 -4.497484e-01
    outer loop
      vertex -2.000000e+00 -2.496500e+01 1.000200e+01
      vertex -9.500248e+00 -2.999950e+01 2.000000e+01
      vertex -9.395248e+00 -2.000000e+01 1.419990e-01
    endloop
  endfacet
  facet normal 0.000000e+00 -8.931555e-01 -4.497481e-01
    outer loop
      vertex -2.000000e+00 -2.496500e+01 1.000200e+01
      vertex -9.395248e+00 -2.000000e+01 1.419990e-01
      vertex 5.395248e+00 -2.000000e+01 1.419990e-01
    endloop
  endfacet
  facet normal 0.000000e+00 -8.931552e-01 -4.497486e-01
    outer loop
      vertex -9.500248e+00 -2.999950e+01 2.000000e+01
      vertex -2.000000e+00 -2.496500e+01 1.000200e+01
      vertex 5.500248e+00 -2.999950e+01 2.000000e+01
    endloop
  endfacet
  facet normal -1.000000e+00 0.000000e+00 0.000000e+00
    outer loop
      vertex -9.500999e+00 -2.999950e+01 2.000000e+01
      vertex -9.500999e+00 -2.000000e+01 2.000000e+01
      vertex -9.500999e+00 -2.000000e+01 1.420130e-01
    endloop
  endfacet
  facet normal -1.000000e+00 0.000000e+00 0.000000e+00
    outer loop
      vertex -9.500999e+00 -2.999950e+01 2.000000e+01
      vertex -9.500999e+00 -2.000000e+01 1.420130e-01
      vertex -9.500999e+00 -2.000000e+01 1.420129e-01
    endloop
  endfacet
  facet normal -1.000000e+00 0.000000e+00 0.000000e+00
    outer loop
      vertex -9.500999e+00 1.640200e+01 1.095700e+01
      vertex -9.500999e+00 2.000100e+01 1.439848e-01
      vertex -9.500999e+00 1.476100e+01 7.888000e+00
    endloop
  endfacet
  facet normal -1.000000e+00 0.000000e+00 0.000000e+00
    outer loop
      vertex -9.500999e+00 1.255300e+01 5.198000e+00
      vertex -9.500999e+00 1.476100e+01 7.888000e+00
      vertex -9.500999e+00 1.500000e+01 4.002000e+00
    endloop
  endfacet
  facet normal -1.000000e+00 0.000000e+00 0.000000e+00
    outer loop
      vertex -9.500999e+00 1.109592e+01 4.002000e+00
      vertex -9.500999e+00 1.255300e+01 5.198000e+00
      vertex -9.500999e+00 1.500000e+01 4.002000e+00
    endloop
  endfacet
  facet normal -4.227038e-07 -8.931553e-01 -4.497484e-01
    outer loop
      vertex 5.500248e+00 -2.999950e+01 2.000000e+01
      vertex -2.000000e+00 -2.496500e+01 1.000200e+01
      vertex 5.395248e+00 -2.000000e+01 1.419990e-01
    endloop
  endfacet
  facet normal -4.227038e-07 -8.931553e-01 -4.497484e-01
    outer loop
      vertex 5.500248e+00 -2.999950e+01 2.000000e+01
      vertex 5.395248e+00 -2.000000e+01 1.419990e-01
      vertex 5.500999e+00 -2.000000e+01 1.419989e-01
    endloop
  endfacet
  facet normal -4.227038e-07 -8.931553e-01 -4.497484e-01
    outer loop
      vertex 5.500248e+00 -2.999950e+01 2.000000e+01
      vertex 5.500999e+00 -2.000000e+01 1.419989e-01
      vertex 5.500999e+00 -2.999950e+01 2.000000e+01
    endloop
  endfacet
  facet normal 1.000000e+00 0.000000e+00 0.000000e+00
    outer loop
      vertex 5.500999e+00 -2.000000e+01 1.419989e-01
      vertex 5.500999e+00 -2.000000e+01 2.000000e+01
      vertex 5.500999e+00 -2.999950e+01 2.000000e+01
    endloop
  endfacet
  facet normal 0.000000e+00 8.818513e-01 4.715275e-01
    outer loop
      vertex 5.500999e+00 -1.476100e+01 7.888000e+00
      vertex -9.500999e+00 -1.476100e+01 7.888000e+00
      vertex -9.500999e+00 -1.640200e+01 1.095700e+01
    endloop
  endfacet
  facet normal 0.000000e+00 8.818513e-01 4.715275e-01
    outer loop
      vertex 5.500999e+00 -1.476100e+01 7.888000e+00
      vertex -9.500999e+00 -1.640200e+01 1.095700e+01
      vertex 5.500999e+00 -1.640200e+01 1.095700e+01
    endloop
  endfacet
  facet normal 0.000000e+00 7.729577e-01 6.344575e-01
    outer loop
      vertex 5.500999e+00 -1.255300e+01 5.198000e+00
      vertex -9.500999e+00 -1.255300e+01 5.198000e+00
      vertex -9.500999e+00 -1.476100e+01 7.888000e+00
    endloop
  endfacet
  facet normal 0.000000e+00 7.729577e-01 6.344575e-01
    outer loop
      vertex 5.500999e+00 -1.255300e+01 5.198000e+00
      vertex -9.500999e+00 -1.476100e+01 7.888000e+00
      vertex 5.500999e+00 -1.476100e+01 7.888000e+00
    endloop
  endfacet
  facet normal 0.000000e+00 -1.000000e+00 0.000000e+00
    outer loop
      vertex -9.500999e+00 -2.000000e+01 1.419989e-01
      vertex -9.500999e+00 -2.000000e+01 1.000000e-03
      vertex -9.395248e+00 -2.000000e+01 1.419990e-01
    endloop
  endfacet
  facet normal 0.000000e+00 -1.000000e+00 0.000000e+00
    outer loop
      vertex 5.395248e+00 -2.000000e+01 1.419990e-01
      vertex -9.395248e+00 -2.000000e+01 1.419990e-01
      vertex -9.500999e+00 -2.000000e+01 1.000000e-03
    endloop
  endfacet
  facet normal 0.000000e+00 -1.000000e+00 0.000000e+00
    outer loop
      vertex 5.395248e+00 -2.000000e+01 1.419990e-01
      vertex -9.500999e+00 -2.000000e+01 1.000000e-03
      vertex 5.500999e+00 -2.000000e+01 1.000000e-03
    endloop
  endfacet
  facet normal 0.000000e+00 -1.000000e+00 0.000000e+00
    outer loop
      vertex 5.395248e+00 -2.000000e+01 1.419990e-01
      vertex 5.500999e+00 -2.000000e+01 1.000000e-03
      vertex 5.500999e+00 -2.000000e+01 1.419989e-01
    endloop
  endfacet
  facet normal 0.000000e+00 0.000000e+00 -1.000000e+00
    outer loop
      vertex 5.500999e+00 -2.000000e+01 1.000000e-03
      vertex -9.500999e+00 -2.000000e+01 1.000000e-03
      vertex -9.500999e+00 -1.500000e+01 1.000000e-03
    endloop
  endfacet
  facet normal 0.000000e+00 6.344575e-01 7.729577e-01
    outer loop
      vertex -9.500999e+00 -1.255300e+01 5.198000e+00
      vertex 5.500999e+00 -1.255300e+01 5.198000e+00
      vertex 5.500999e+00 -1.109592e+01 4.002000e+00
    endloop
  endfacet
  facet normal 0.000000e+00 6.344575e-01 7.729577e-01
    outer loop
      vertex -9.500999e+00 -1.255300e+01 5.198000e+00
      vertex 5.500999e+00 -1.109592e+01 4.002000e+00
      vertex -9.500999e+00 -1.109592e+01 4.002000e+00
    endloop
  endfacet
  facet normal 0.000000e+00 0.000000e+00 1.000000e+00
    outer loop
      vertex 4.487600e+01 1.949000e+00 4.002000e+00
      vertex 7.450000e+01 1.500000e+01 4.002000e+00
      vertex 4.375000e+01 2.251000e+00 4.002000e+00
    endloop
  endfacet
  facet normal 0.000000e+00 -6.344575e-01 7.729577e-01
    outer loop
      vertex 5.500999e+00 1.255300e+01 5.198000e+00
      vertex -9.500999e+00 1.255300e+01 5.198000e+00
      vertex -9.500999e+00 1.109592e+01 4.002000e+00
    endloop
  endfacet
  facet normal 0.000000e+00 -6.344575e-01 7.729577e-01
    outer loop
      vertex 5.500999e+00 1.255300e+01 5.198000e+00
      vertex -9.500999e+00 1.109592e+01 4.002000e+00
      vertex 5.500999e+00 1.109592e+01 4.002000e+00
    endloop
  endfacet
  facet normal -1.000000e+00 0.000000e+00 0.000000e+00
    outer loop
      vertex -9.500999e+00 -1.800000e+01 2.000100e+01
      vertex -9.500999e+00 -1.775300e+01 1.775100e+01
      vertex -9.500999e+00 -2.000000e+01 1.419989e-01
    endloop
  endfacet
  facet normal -1.000000e+00 0.000000e+00 0.000000e+00
    outer loop
      vertex -9.500999e+00 -2.000000e+01 1.000000e-03
      vertex -9.500999e+00 -2.000000e+01 1.419989e-01
      vertex -9.500999e+00 -1.500000e+01 1.000000e-03
    endloop
  endfacet
  facet normal -1.000000e+00 0.000000e+00 0.000000e+00
    outer loop
      vertex -9.500999e+00 -2.000000e+01 1.419989e-01
      vertex -9.500999e+00 -2.000000e+01 1.419990e-01
      vertex -9.500999e+00 -1.800000e+01 2.000100e+01
    endloop
  endfacet
  facet normal -1.000000e+00 0.000000e+00 0.000000e+00
    outer loop
      vertex -9.500999e+00 -2.000000e+01 1.419990e-01
      vertex -9.500999e+00 -2.000000e+01 1.420129e-01
      vertex -9.500999e+00 -1.800000e+01 2.000100e+01
    endloop
  endfacet
  facet normal -1.000000e+00 0.000000e+00 0.000000e+00
    outer loop
      vertex -9.500999e+00 -2.000000e+01 2.000000e+01
      vertex -9.500999e+00 -1.800000e+01 2.000100e+01
      vertex -9.500999e+00 -2.000000e+01 1.420129e-01
    endloop
  endfacet
  facet normal -1.000000e+00 0.000000e+00 0.000000e+00
    outer loop
      vertex -9.500999e+00 -2.000000e+01 2.000000e+01
      vertex -9.500999e+00 -2.000000e+01 1.420129e-01
      vertex -9.500999e+00 -2.000000e+01 1.420130e-01
    endloop
  endfacet
  facet normal 0.000000e+00 -7.729577e-01 6.344575e-01
    outer loop
      vertex 5.500999e+00 1.476100e+01 7.888000e+00
      vertex -9.500999e+00 1.476100e+01 7.888000e+00
      vertex -9.500999e+00 1.255300e+01 5.198000e+00
    endloop
  endfacet
  facet normal 0.000000e+00 -7.729577e-01 6.344575e-01
    outer loop
      vertex 5.500999e+00 1.476100e+01 7.888000e+00
      vertex -9.500999e+00 1.255300e+01 5.198000e+00
      vertex 5.500999e+00 1.255300e+01 5.198000e+00
    endloop
  endfacet
  facet normal 0.000000e+00 0.000000e+00 -1.000000e+00
    outer loop
      vertex -9.500999e+00 -3.000000e+01 2.000000e+01
      vertex -9.500248e+00 -2.999950e+01 2.000000e+01
      vertex 5.500999e+00 -3.000000e+01 2.000000e+01
    endloop
  endfacet
  facet normal 0.000000e+00 0.000000e+00 -1.000000e+00
    outer loop
      vertex -9.500999e+00 -2.999950e+01 2.000000e+01
      vertex -9.500248e+00 -2.999950e+01 2.000000e+01
      vertex -9.500999e+00 -3.000000e+01 2.000000e+01
    endloop
  endfacet
  facet normal 0.000000e+00 0.000000e+00 -1.000000e+00
    outer loop
      vertex -9.500248e+00 -2.999950e+01 2.000000e+01
      vertex 5.500248e+00 -2.999950e+01 2.000000e+01
      vertex 5.500999e+00 -3.000000e+01 2.000000e+01
    endloop
  endfacet
  facet normal 0.000000e+00 0.000000e+00 -1.000000e+00
    outer loop
      vertex 5.500999e+00 -2.999950e+01 2.000000e+01
      vertex 5.500999e+00 -3.000000e+01 2.000000e+01
      vertex 5.500248e+00 -2.999950e+01 2.000000e+01
    endloop
  endfacet
  facet normal 0.000000e+00 -8.818513e-01 4.715275e-01
    outer loop
      vertex -9.500999e+00 1.476100e+01 7.888000e+00
      vertex 5.500999e+00 1.476100e+01 7.888000e+00
      vertex -9.500999e+00 1.640200e+01 1.095700e+01
    endloop
  endfacet
  facet normal 1.000000e+00 0.000000e+00 0.000000e+00
    outer loop
      vertex 5.500999e+00 -3.000000e+01 2.000000e+01
      vertex 5.500999e+00 -2.999950e+01 2.000000e+01
      vertex 5.500999e+00 -3.000000e+01 2.600100e+01
    endloop
  endfacet
  facet normal 1.000000e+00 0.000000e+00 0.000000e+00
    outer loop
      vertex 5.500999e+00 -2.999950e+01 2.000000e+01
      vertex 5.500999e+00 -2.000000e+01 2.000000e+01
      vertex 5.500999e+00 -3.000000e+01 2.600100e+01
    endloop
  endfacet
  facet normal 1.000000e+00 0.000000e+00 0.000000e+00
    outer loop
      vertex 5.500999e+00 -1.800000e+01 2.600100e+01
      vertex 5.500999e+00 -3.000000e+01 2.600100e+01
      vertex 5.500999e+00 -2.000000e+01 2.000000e+01
    endloop
  endfacet
  facet normal 1.000000e+00 0.000000e+00 0.000000e+00
    outer loop
      vertex 5.500999e+00 -1.800000e+01 2.600100e+01
      vertex 5.500999e+00 -2.000000e+01 2.000000e+01
      vertex 5.500999e+00 -1.800000e+01 2.000100e+01
    endloop
  endfacet
  facet normal 0.000000e+00 0.000000e+00 1.000000e+00
    outer loop
      vertex -9.500999e+00 -1.800000e+01 2.600100e+01
      vertex -9.500999e+00 -3.000000e+01 2.600100e+01
      vertex 5.500999e+00 -3.000000e+01 2.600100e+01
    endloop
  endfacet
  facet normal 0.000000e+00 0.000000e+00 1.000000e+00
    outer loop
      vertex -9.500999e+00 -1.800000e+01 2.600100e+01
      vertex 5.500999e+00 -3.000000e+01 2.600100e+01
      vertex 5.500999e+00 -1.800000e+01 2.600100e+01
    endloop
  endfacet
  facet normal 0.000000e+00 0.000000e+00 1.000000e+00
    outer loop
      vertex -9.500999e+00 -1.500000e+01 4.002000e+00
      vertex -1.150300e+01 -1.109592e+01 4.002000e+00
      vertex -3.450000e+01 -1.500000e+01 4.002000e+00
    endloop
  endfacet
  facet normal 0.000000e+00 0.000000e+00 1.000000e+00
    outer loop
      vertex -3.450000e+01 1.500000e+01 4.002000e+00
      vertex -3.450000e+01 -1.500000e+01 4.002000e+00
      vertex -1.150300e+01 -1.109592e+01 4.002000e+00
    endloop
  endfacet
  facet normal 0.000000e+00 0.000000e+00 1.000000e+00
    outer loop
      vertex -3.450000e+01 1.500000e+01 4.002000e+00
      vertex -1.150300e+01 -1.109592e+01 4.002000e+00
      vertex -1.150300e+01 1.109592e+01 4.002000e+00
    endloop
  endfacet
  facet normal 0.000000e+00 0.000000e+00 1.000000e+00
    outer loop
      vertex -1.150300e+01 1.109592e+01 4.002000e+00
      vertex -9.500999e+00 1.500000e+01 4.002000e+00
      vertex -3.450000e+01 1.500000e+01 4.002000e+00
    endloop
  endfacet
  facet normal -1.000000e+00 0.000000e+00 0.000000e+00
    outer loop
      vertex -9.500999e+00 -1.800000e+01 2.600100e+01
      vertex -9.500999e+00 -1.800000e+01 2.000100e+01
      vertex -9.500999e+00 -2.000000e+01 2.000000e+01
    endloop
  endfacet
  facet normal -1.000000e+00 0.000000e+00 0.000000e+00
    outer loop
      vertex -9.500999e+00 -1.800000e+01 2.600100e+01
      vertex -9.500999e+00 -2.000000e+01 2.000000e+01
      vertex -9.500999e+00 -2.999950e+01 2.000000e+01
    endloop
  endfacet
  facet normal -1.000000e+00 0.000000e+00 0.000000e+00
    outer loop
      vertex -9.500999e+00 -1.800000e+01 2.600100e+01
      vertex -9.500999e+00 -2.999950e+01 2.000000e+01
      vertex -9.500999e+00 -2.999950e+01 2.000000e+01
    endloop
  endfacet
  facet normal -1.000000e+00 0.000000e+00 0.000000e+00
    outer loop
      vertex -9.500999e+00 -3.000000e+01 2.000000e+01
      vertex -9.500999e+00 -3.000000e+01 2.600100e+01
      vertex -9.500999e+00 -2.999950e+01 2.000000e+01
    endloop
  endfacet
  facet normal -1.000000e+00 0.000000e+00 0.000000e+00
    outer loop
      vertex -9.500999e+00 -1.800000e+01 2.600100e+01
      vertex -9.500999e+00 -2.999950e+01 2.000000e+01
      vertex -9.500999e+00 -3.000000e+01 2.600100e+01
    endloop
  endfacet
  facet normal -1.000000e+00 0.000000e+00 0.000000e+00
    outer loop
      vertex -3.450000e+01 1.500000e+01 4.002000e+00
      vertex -3.450000e+01 1.500000e+01 0.000000e+00
      vertex -3.450000e+01 -1.500000e+01 0.000000e+00
    endloop
  endfacet
  facet normal -1.000000e+00 0.000000e+00 0.000000e+00
    outer loop
      vertex -3.450000e+01 1.500000e+01 4.002000e+00
      vertex -3.450000e+01 -1.500000e+01 0.000000e+00
      vertex -3.450000e+01 -1.500000e+01 4.002000e+00
    endloop
  endfacet
  facet normal 0.000000e+00 0.000000e+00 1.000000e+00
    outer loop
      vertex 4.375000e+01 2.251000e+00 1.500100e+01
      vertex 4.262500e+01 1.949000e+00 1.500100e+01
      vertex 4.487600e+01 1.949000e+00 1.500100e+01
    endloop
  endfacet
  facet normal 0.000000e+00 0.000000e+00 1.000000e+00
    outer loop
      vertex 4.569900e+01 1.125000e+00 1.500100e+01
      vertex 4.487600e+01 1.949000e+00 1.500100e+01
      vertex 4.262500e+01 1.949000e+00 1.500100e+01
    endloop
  endfacet
  facet normal 0.000000e+00 0.000000e+00 1.000000e+00
    outer loop
      vertex 4.262500e+01 1.949000e+00 1.500100e+01
      vertex 4.180100e+01 1.125000e+00 1.500100e+01
      vertex 4.569900e+01 1.125000e+00 1.500100e+01
    endloop
  endfacet
  facet normal 0.000000e+00 0.000000e+00 1.000000e+00
    outer loop
      vertex 4.180100e+01 1.125000e+00 1.500100e+01
      vertex 4.150000e+01 0.000000e+00 1.500100e+01
      vertex 4.569900e+01 1.125000e+00 1.500100e+01
    endloop
  endfacet
  facet normal 0.000000e+00 0.000000e+00 1.000000e+00
    outer loop
      vertex 4.600100e+01 0.000000e+00 1.500100e+01
      vertex 4.569900e+01 1.125000e+00 1.500100e+01
      vertex 4.150000e+01 0.000000e+00 1.500100e+01
    endloop
  endfacet
  facet normal 0.000000e+00 0.000000e+00 1.000000e+00
    outer loop
      vertex 4.180100e+01 -1.125000e+00 1.500100e+01
      vertex 4.569900e+01 -1.125000e+00 1.500100e+01
      vertex 4.150000e+01 0.000000e+00 1.500100e+01
    endloop
  endfacet
  facet normal 0.000000e+00 0.000000e+00 1.000000e+00
    outer loop
      vertex 4.262500e+01 -1.949000e+00 1.500100e+01
      vertex 4.569900e+01 -1.125000e+00 1.500100e+01
      vertex 4.180100e+01 -1.125000e+00 1.500100e+01
    endloop
  endfacet
  facet normal 0.000000e+00 0.000000e+00 1.000000e+00
    outer loop
      vertex 4.375000e+01 -2.251000e+00 1.500100e+01
      vertex 4.487600e+01 -1.949000e+00 1.500100e+01
      vertex 4.262500e+01 -1.949000e+00 1.500100e+01
    endloop
  endfacet
  facet normal 0.000000e+00 0.000000e+00 1.000000e+00
    outer loop
      vertex 4.569900e+01 -1.125000e+00 1.500100e+01
      vertex 4.262500e+01 -1.949000e+00 1.500100e+01
      vertex 4.487600e+01 -1.949000e+00 1.500100e+01
    endloop
  endfacet
  facet normal 0.000000e+00 0.000000e+00 1.000000e+00
    outer loop
      vertex 4.600100e+01 0.000000e+00 1.500100e+01
      vertex 4.150000e+01 0.000000e+00 1.500100e+01
      vertex 4.569900e+01 -1.125000e+00 1.500100e+01
    endloop
  endfacet
  facet normal 0.000000e+00 -9.799559e-02 9.951869e-01
    outer loop
      vertex 6.502998e+00 3.463000e+00 3.390000e-01
      vertex -1.150300e+01 2.031088e-02 0.000000e+00
      vertex 6.502998e+00 2.031088e-02 0.000000e+00
    endloop
  endfacet
  facet normal 9.658061e-01 -2.592653e-01 0.000000e+00
    outer loop
      vertex 4.569900e+01 -1.125000e+00 1.500100e+01
      vertex 4.569900e+01 -1.125000e+00 4.002000e+00
      vertex 4.600100e+01 0.000000e+00 4.002000e+00
    endloop
  endfacet
  facet normal 9.658061e-01 -2.592653e-01 0.000000e+00
    outer loop
      vertex 4.569900e+01 -1.125000e+00 1.500100e+01
      vertex 4.600100e+01 0.000000e+00 4.002000e+00
      vertex 4.600100e+01 0.000000e+00 1.500100e+01
    endloop
  endfacet
  facet normal 0.000000e+00 9.799559e-02 9.951869e-01
    outer loop
      vertex -1.150300e+01 -3.463000e+00 3.390000e-01
      vertex 6.502998e+00 -2.031088e-02 0.000000e+00
      vertex -1.150300e+01 -2.031088e-02 0.000000e+00
    endloop
  endfacet
  facet normal 0.000000e+00 -9.799559e-02 9.951869e-01
    outer loop
      vertex -1.150300e+01 2.031088e-02 0.000000e+00
      vertex 6.502998e+00 3.463000e+00 3.390000e-01
      vertex -1.150300e+01 3.463000e+00 3.390000e-01
    endloop
  endfacet
  facet normal 0.000000e+00 6.344575e-01 7.729577e-01
    outer loop
      vertex -1.150300e+01 -1.109592e+01 4.002000e+00
      vertex -9.500999e+00 -1.109592e+01 4.002000e+00
      vertex -1.150300e+01 -9.863000e+00 2.990000e+00
    endloop
  endfacet
  facet normal 0.000000e+00 6.344575e-01 7.729577e-01
    outer loop
      vertex 6.502998e+00 -9.863000e+00 2.990000e+00
      vertex -1.150300e+01 -9.863000e+00 2.990000e+00
      vertex -9.500999e+00 -1.109592e+01 4.002000e+00
    endloop
  endfacet
  facet normal 0.000000e+00 6.344575e-01 7.729577e-01
    outer loop
      vertex 6.502998e+00 -9.863000e+00 2.990000e+00
      vertex -9.500999e+00 -1.109592e+01 4.002000e+00
      vertex 5.500999e+00 -1.109592e+01 4.002000e+00
    endloop
  endfacet
  facet normal 0.000000e+00 6.344575e-01 7.729577e-01
    outer loop
      vertex 6.502998e+00 -9.863000e+00 2.990000e+00
      vertex 5.500999e+00 -1.109592e+01 4.002000e+00
      vertex 6.502998e+00 -1.109592e+01 4.002000e+00
    endloop
  endfacet
  facet normal 0.000000e+00 4.715275e-01 8.818513e-01
    outer loop
      vertex 6.502998e+00 -6.794000e+00 1.349000e+00
      vertex -1.150300e+01 -6.794000e+00 1.349000e+00
      vertex -1.150300e+01 -9.863000e+00 2.990000e+00
    endloop
  endfacet
  facet normal 0.000000e+00 4.715275e-01 8.818513e-01
    outer loop
      vertex 6.502998e+00 -6.794000e+00 1.349000e+00
      vertex -1.150300e+01 -9.863000e+00 2.990000e+00
      vertex 6.502998e+00 -9.863000e+00 2.990000e+00
    endloop
  endfacet
  facet normal 0.000000e+00 2.901669e-01 9.569761e-01
    outer loop
      vertex 6.502998e+00 -3.463000e+00 3.390000e-01
      vertex -1.150300e+01 -3.463000e+00 3.390000e-01
      vertex -1.150300e+01 -6.794000e+00 1.349000e+00
    endloop
  endfacet
  facet normal 0.000000e+00 2.901669e-01 9.569761e-01
    outer loop
      vertex 6.502998e+00 -3.463000e+00 3.390000e-01
      vertex -1.150300e+01 -6.794000e+00 1.349000e+00
      vertex 6.502998e+00 -6.794000e+00 1.349000e+00
    endloop
  endfacet
  facet normal 0.000000e+00 9.799559e-02 9.951869e-01
    outer loop
      vertex 6.502998e+00 -2.031088e-02 0.000000e+00
      vertex -1.150300e+01 -3.463000e+00 3.390000e-01
      vertex 6.502998e+00 -3.463000e+00 3.390000e-01
    endloop
  endfacet
endsolid Default
